<svg width="1305" height="1496" viewBox="0 0 1305 1496" fill="none" xmlns="http://www.w3.org/2000/svg">
<ellipse cx="265.5" cy="247" rx="184.5" ry="184" fill="#FFB133"/>
<path d="M951 1235C951 1379.15 833.475 1496 688.5 1496C543.525 1496 426 1379.15 426 1235C426 1090.85 543.525 974 688.5 974C833.475 974 951 1090.85 951 1235Z" fill="#FFB133"/>
<ellipse cx="521" cy="183.5" rx="64" ry="63.5" fill="#FFB133"/>
<ellipse cx="1100" cy="203.5" rx="205" ry="203.5" fill="#FFB133"/>
<ellipse cx="1014" cy="477" rx="71" ry="70" fill="#FFB133"/>
<ellipse cx="1143" cy="464" rx="43" ry="42" fill="#FFB133"/>
<ellipse cx="1119" cy="1201" rx="150" ry="148" fill="#FFB133"/>
<ellipse cx="439" cy="380.5" rx="27" ry="26.5" fill="#FFB133"/>
<path d="M611 941C611 965.853 590.853 986 566 986C541.147 986 521 965.853 521 941C521 916.147 541.147 896 566 896C590.853 896 611 916.147 611 941Z" fill="#FFB133"/>
<path d="M1006 1078C1006 1102.85 985.853 1123 961 1123C936.147 1123 916 1102.85 916 1078C916 1053.15 936.147 1033 961 1033C985.853 1033 1006 1053.15 1006 1078Z" fill="#FFB133"/>
<path d="M1045 1048.5C1045 1057.06 1038.06 1064 1029.5 1064C1020.94 1064 1014 1057.06 1014 1048.5C1014 1039.94 1020.94 1033 1029.5 1033C1038.06 1033 1045 1039.94 1045 1048.5Z" fill="#FFB133"/>
<path d="M279 1284.5C279 1360.99 216.544 1423 139.5 1423C62.4563 1423 0 1360.99 0 1284.5C0 1208.01 62.4563 1146 139.5 1146C216.544 1146 279 1208.01 279 1284.5Z" fill="#FFB133"/>
<path d="M277.172 442C263.517 444.066 250.181 445.322 244.01 448.025C240.391 449.611 240.01 450.305 239.608 451.592C239.209 452.875 238.84 457.319 242.343 466.277L247.499 479.464L234.641 484.031C194.099 498.433 167.241 541.047 166.679 578.597C165.694 644.074 223.203 701.46 253.519 756.19C263.177 773.627 260.225 794.149 252.875 814.481C245.525 834.807 233.343 856.652 219.663 880.411C192.304 927.93 158.947 982.93 145.291 1039.18C135.847 1078.07 150.056 1103.72 172.318 1121.93C194.582 1140.14 226.134 1148 243.327 1145.57C270.589 1141.71 289.283 1123.11 299.814 1100.36C310.344 1077.62 310.961 1051.2 304.3 1037.24C299.828 1027.86 290.737 1019.71 280.344 1014.93C269.951 1010.14 258.552 1009.09 251.404 1011.24C228.373 1018.15 220.981 1035.01 219.643 1053.15C219.072 1060.89 220.184 1068.34 221.922 1074.5C226.013 1067.17 230.641 1059.72 235.742 1053.23C240.678 1046.96 245.71 1041.29 253.526 1037.99C257.432 1036.35 262.485 1035.5 267.492 1036.95C272.499 1038.39 276.685 1041.95 279.512 1045.94C284.522 1053.03 285.923 1060.98 285.959 1069.51C285.993 1078.05 284.229 1087.27 279.841 1095.96C271.063 1113.35 249.584 1126.41 220.869 1120.41C195.916 1115.2 177.282 1098.62 170.56 1076.57C163.837 1054.52 168.556 1028.63 183.525 1004.01C215.876 950.805 271.597 918.944 316.107 883.941C338.362 866.439 357.808 848.342 370.924 827.627C384.04 806.909 391.263 783.808 389.352 753.463C387.413 722.656 366.947 693.143 337.267 666.716C307.587 640.286 269.563 617.58 236.691 599.882L236.677 599.876C232.179 597.446 228.78 592.464 227.643 588.071C226.511 583.676 226.869 579.911 227.567 576.586C228.959 569.938 231.902 564.484 235.886 559.637C239.87 554.789 245.058 549.204 254.781 549.788C259.641 550.079 264.816 553.102 267.767 556.926C270.569 560.557 271.956 564.509 272.865 568.757C272.915 568.691 273.587 569.515 276.514 570.742C280.757 572.526 288.23 574.116 297.385 574.681C315.692 575.802 340.784 573.195 365.24 566.801C392.047 559.793 419.554 566.761 442.344 574.012C447.128 575.534 450.521 576.729 454.832 578.212C454.719 577.755 454.478 577.312 454.379 576.854C451.353 562.801 453.473 549.098 456.275 537.364C457.125 533.802 458.07 530.82 459 527.634C440.657 533.812 419.279 536.945 398.225 534.506C371.404 531.4 344.359 517.404 331.367 488.477C316.1 484.841 305.035 476.359 297.126 467.262C289.483 458.468 283.906 449.705 277.172 442ZM293.392 498.059C304.651 498.059 313.777 507.392 313.777 518.911C313.777 530.426 304.651 539.763 293.393 539.763C282.136 539.763 273.009 530.426 273.009 518.911C273.009 507.392 282.134 498.059 293.392 498.059ZM227.592 626.418C292.015 685.942 326.378 735.851 332.163 782.366C335.056 805.626 330.047 827.774 318.321 846.988C306.593 866.2 288.61 882.638 265.562 897.365L252.318 874.511C273.167 861.194 288.011 847.069 296.874 832.554C305.734 818.036 309.074 803.289 306.902 785.833C302.559 750.924 273.148 704.143 210.765 646.503L227.592 626.418ZM84 655.801C100.362 708.484 139.674 754.132 187.226 795.123C189.672 786.171 192.678 777.268 197.148 768.964C201.804 760.314 208.451 752.348 216.96 746.611C202.613 725.619 184.766 702.303 169.95 676.252C168.605 676.245 167.26 676.2 165.917 676.118C154.265 675.382 139.676 672.682 124.636 668.91C110.418 665.346 96.1353 660.79 84 655.801Z" fill="white" fill-opacity="0.3"/>
<path d="M1155.28 563C1163.03 564.168 1170.61 564.878 1174.11 566.406C1176.17 567.303 1176.39 567.695 1176.61 568.423C1176.84 569.148 1177.05 571.66 1175.06 576.725L1172.13 584.18L1179.44 586.762C1202.46 594.904 1217.72 618.995 1218.04 640.224C1218.6 677.241 1185.93 709.683 1168.71 740.624C1163.23 750.482 1164.9 762.084 1169.08 773.579C1173.25 785.07 1180.17 797.42 1187.94 810.852C1203.48 837.716 1222.43 868.81 1230.19 900.608C1235.55 922.595 1227.48 937.1 1214.84 947.394C1202.19 957.69 1184.27 962.132 1174.5 960.756C1159.02 958.575 1148.4 948.06 1142.42 935.199C1136.44 922.339 1136.09 907.406 1139.87 899.514C1142.41 894.212 1147.57 889.604 1153.48 886.899C1159.38 884.193 1165.85 883.602 1169.91 884.815C1183 888.722 1187.19 898.25 1187.95 908.506C1188.28 912.881 1187.65 917.095 1186.66 920.58C1184.34 916.435 1181.71 912.224 1178.81 908.556C1176.01 905.01 1173.15 901.8 1168.71 899.939C1166.49 899.009 1163.62 898.531 1160.78 899.347C1157.93 900.164 1155.55 902.173 1153.95 904.433C1151.1 908.441 1150.31 912.934 1150.29 917.759C1150.27 922.587 1151.27 927.798 1153.76 932.712C1158.75 942.539 1170.95 949.927 1187.26 946.534C1201.43 943.585 1212.02 934.216 1215.83 921.749C1219.65 909.282 1216.97 894.646 1208.47 880.729C1190.09 850.648 1158.44 832.636 1133.16 812.847C1120.52 802.953 1109.48 792.722 1102.03 781.011C1094.58 769.298 1090.47 756.238 1091.56 739.083C1092.66 721.666 1104.29 704.981 1121.14 690.041C1138 675.099 1159.6 662.263 1178.27 652.257L1178.28 652.254C1180.83 650.88 1182.77 648.064 1183.41 645.58C1184.05 643.095 1183.85 640.967 1183.45 639.087C1182.66 635.329 1180.99 632.245 1178.73 629.505C1176.47 626.764 1173.52 623.607 1168 623.937C1165.24 624.101 1162.3 625.811 1160.62 627.972C1159.03 630.025 1158.24 632.259 1157.72 634.661C1157.7 634.624 1157.31 635.089 1155.65 635.783C1153.24 636.792 1149 637.691 1143.8 638.01C1133.4 638.644 1119.15 637.17 1105.26 633.555C1090.03 629.593 1074.41 633.532 1061.46 637.632C1058.74 638.492 1056.82 639.168 1054.37 640.006C1054.43 639.748 1054.57 639.497 1054.62 639.238C1056.34 631.294 1055.14 623.547 1053.55 616.913C1053.07 614.899 1052.53 613.214 1052 611.412C1062.42 614.905 1074.56 616.676 1086.52 615.297C1101.75 613.541 1117.12 605.629 1124.5 589.275C1133.17 587.22 1139.45 582.425 1143.94 577.282C1148.29 572.31 1151.45 567.356 1155.28 563ZM1146.07 594.692C1139.67 594.692 1134.49 599.969 1134.49 606.481C1134.49 612.991 1139.67 618.269 1146.06 618.269C1152.46 618.269 1157.64 612.991 1157.64 606.481C1157.64 599.969 1152.46 594.692 1146.07 594.692ZM1183.44 667.259C1146.85 700.91 1127.33 729.126 1124.04 755.423C1122.4 768.573 1125.25 781.094 1131.91 791.956C1138.57 802.817 1148.78 812.11 1161.87 820.436L1169.4 807.516C1157.55 799.987 1149.12 792.002 1144.09 783.796C1139.06 775.589 1137.16 767.252 1138.39 757.383C1140.86 737.647 1157.56 711.2 1193 678.614L1183.44 667.259ZM1265 683.87C1255.71 713.654 1233.38 739.461 1206.37 762.635C1204.98 757.574 1203.27 752.541 1200.73 747.846C1198.09 742.956 1194.31 738.452 1189.48 735.209C1197.63 723.342 1207.76 710.16 1216.18 695.432C1216.94 695.428 1217.71 695.403 1218.47 695.356C1225.09 694.941 1233.38 693.414 1241.92 691.281C1249.99 689.266 1258.11 686.691 1265 683.87Z" fill="white" fill-opacity="0.3"/>
<path d="M861.912 819C865.735 819.572 869.469 819.92 871.197 820.669C872.21 821.108 872.317 821.3 872.43 821.657C872.541 822.012 872.645 823.243 871.664 825.724L870.22 829.377L873.821 830.642C885.172 834.631 892.692 846.435 892.85 856.836C893.126 874.972 877.023 890.868 868.535 906.027C865.83 910.857 866.657 916.541 868.715 922.173C870.773 927.803 874.184 933.854 878.014 940.435C885.675 953.597 895.015 968.832 898.839 984.411C901.483 995.183 897.504 1002.29 891.271 1007.33C885.037 1012.38 876.202 1014.55 871.389 1013.88C863.755 1012.81 858.521 1007.66 855.572 1001.36C852.624 995.058 852.451 987.742 854.316 983.875C855.568 981.277 858.114 979.02 861.024 977.694C863.934 976.368 867.126 976.079 869.127 976.673C875.575 978.587 877.645 983.256 878.02 988.28C878.18 990.424 877.868 992.489 877.382 994.196C876.236 992.165 874.941 990.102 873.512 988.305C872.13 986.568 870.721 984.995 868.533 984.083C867.439 983.628 866.024 983.393 864.622 983.793C863.22 984.193 862.048 985.178 861.257 986.285C859.854 988.249 859.462 990.45 859.452 992.814C859.442 995.18 859.936 997.733 861.164 1000.14C863.622 1004.96 869.637 1008.57 877.677 1006.91C884.663 1005.47 889.881 1000.88 891.763 994.769C893.646 988.661 892.324 981.49 888.133 974.671C879.075 959.933 863.473 951.108 851.01 941.413C844.779 936.565 839.334 931.552 835.661 925.814C831.989 920.076 829.967 913.677 830.502 905.272C831.044 896.738 836.775 888.564 845.085 881.244C853.396 873.923 864.042 867.634 873.246 862.732L873.25 862.73C874.51 862.057 875.462 860.677 875.78 859.46C876.097 858.243 875.997 857.2 875.801 856.279C875.411 854.437 874.587 852.927 873.472 851.584C872.356 850.241 870.904 848.694 868.181 848.856C866.82 848.937 865.372 849.774 864.545 850.833C863.761 851.839 863.372 852.934 863.118 854.11C863.104 854.092 862.916 854.32 862.096 854.66C860.908 855.154 858.816 855.595 856.252 855.751C851.126 856.062 844.101 855.339 837.253 853.568C829.747 851.627 822.045 853.557 815.664 855.566C814.324 855.987 813.374 856.318 812.167 856.729C812.199 856.602 812.266 856.48 812.294 856.353C813.141 852.461 812.548 848.665 811.763 845.415C811.525 844.428 811.26 843.602 811 842.72C816.136 844.431 822.122 845.299 828.017 844.623C835.527 843.763 843.099 839.886 846.737 831.874C851.012 830.867 854.11 828.517 856.325 825.997C858.465 823.561 860.026 821.134 861.912 819ZM857.37 834.528C854.218 834.528 851.662 837.113 851.662 840.303C851.662 843.493 854.218 846.079 857.37 846.079C860.522 846.079 863.077 843.493 863.077 840.303C863.077 837.113 860.522 834.528 857.37 834.528ZM875.794 870.082C857.756 886.569 848.134 900.393 846.514 913.278C845.704 919.72 847.107 925.855 850.39 931.177C853.674 936.498 858.709 941.052 865.163 945.131L868.871 938.801C863.033 935.112 858.877 931.199 856.395 927.179C853.914 923.158 852.979 919.073 853.588 914.238C854.803 904.568 863.039 891.611 880.506 875.645L875.794 870.082ZM916 878.22C911.419 892.813 900.411 905.457 887.097 916.811C886.412 914.331 885.57 911.865 884.319 909.565C883.015 907.169 881.154 904.963 878.771 903.374C882.789 897.559 887.785 891.101 891.934 883.885C892.311 883.883 892.687 883.871 893.063 883.848C896.326 883.644 900.411 882.896 904.622 881.851C908.603 880.864 912.602 879.602 916 878.22Z" fill="white" fill-opacity="0.3"/>
<path d="M563.519 258C568.289 258.713 572.947 259.147 575.103 260.08C576.367 260.627 576.5 260.867 576.641 261.311C576.78 261.754 576.909 263.288 575.686 266.38L573.884 270.931L578.376 272.508C592.539 277.479 601.921 292.188 602.117 305.149C602.461 327.75 582.372 347.558 571.781 366.449C568.408 372.468 569.439 379.551 572.006 386.569C574.574 393.585 578.83 401.126 583.608 409.327C593.166 425.729 604.818 444.713 609.589 464.128C612.888 477.552 607.924 486.408 600.148 492.693C592.37 498.979 581.348 501.691 575.342 500.851C565.818 499.52 559.288 493.099 555.609 485.247C551.931 477.396 551.715 468.278 554.042 463.46C555.604 460.222 558.78 457.409 562.411 455.757C566.041 454.105 570.023 453.744 572.52 454.485C580.566 456.87 583.148 462.688 583.615 468.949C583.815 471.621 583.426 474.194 582.819 476.321C581.39 473.791 579.773 471.219 577.992 468.98C576.267 466.815 574.509 464.855 571.779 463.719C570.414 463.151 568.649 462.859 566.9 463.357C565.151 463.856 563.689 465.083 562.701 466.463C560.951 468.91 560.461 471.653 560.449 474.599C560.437 477.547 561.053 480.729 562.586 483.729C565.653 489.729 573.156 494.239 583.187 492.168C591.904 490.367 598.414 484.647 600.762 477.035C603.11 469.423 601.462 460.487 596.233 451.99C584.931 433.624 565.466 422.627 549.917 410.545C542.143 404.504 535.35 398.257 530.768 391.107C526.186 383.956 523.663 375.982 524.33 365.508C525.008 354.874 532.157 344.687 542.526 335.565C552.894 326.442 566.177 318.605 577.66 312.496L577.665 312.494C579.236 311.655 580.424 309.936 580.821 308.419C581.216 306.902 581.091 305.603 580.847 304.455C580.361 302.161 579.333 300.278 577.941 298.605C576.549 296.931 574.737 295.004 571.34 295.205C569.643 295.306 567.835 296.349 566.804 297.669C565.825 298.922 565.341 300.287 565.023 301.753C565.006 301.73 564.771 302.014 563.748 302.438C562.266 303.054 559.656 303.603 556.458 303.798C550.062 304.184 541.297 303.285 532.754 301.078C523.389 298.659 513.78 301.064 505.818 303.567C504.147 304.092 502.962 304.504 501.456 305.016C501.496 304.858 501.58 304.706 501.614 304.548C502.671 299.697 501.931 294.967 500.952 290.917C500.655 289.687 500.325 288.658 500 287.558C506.408 289.691 513.876 290.772 521.231 289.93C530.6 288.858 540.048 284.027 544.586 274.042C549.92 272.788 553.785 269.86 556.548 266.72C559.218 263.684 561.166 260.659 563.519 258ZM557.852 277.35C553.919 277.35 550.731 280.571 550.731 284.547C550.731 288.522 553.919 291.745 557.852 291.745C561.785 291.745 564.973 288.522 564.973 284.547C564.973 280.571 561.785 277.35 557.852 277.35ZM580.838 321.655C558.333 342.202 546.329 359.429 544.308 375.484C543.298 383.513 545.048 391.158 549.144 397.79C553.241 404.421 559.523 410.095 567.574 415.179L572.201 407.29C564.918 402.693 559.732 397.818 556.636 392.808C553.541 387.797 552.374 382.706 553.133 376.681C554.65 364.631 564.924 348.484 586.717 328.588L580.838 321.655ZM631 331.798C625.284 349.982 611.551 365.739 594.94 379.887C594.085 376.798 593.035 373.725 591.474 370.858C589.847 367.873 587.525 365.123 584.553 363.143C589.565 355.897 595.799 347.849 600.975 338.857C601.445 338.854 601.915 338.839 602.384 338.811C606.454 338.557 611.551 337.625 616.804 336.322C621.771 335.092 626.761 333.52 631 331.798Z" fill="white" fill-opacity="0.3"/>
<path d="M806.583 184C816.014 185.409 825.224 186.265 829.486 188.108C831.986 189.189 832.249 189.663 832.526 190.54C832.802 191.415 833.057 194.445 830.638 200.552L827.077 209.544L835.958 212.658C863.958 222.477 882.508 251.532 882.896 277.135C883.576 321.778 843.857 360.905 822.919 398.22C816.248 410.109 818.288 424.102 823.364 437.964C828.44 451.823 836.854 466.717 846.302 482.917C865.198 515.316 888.236 552.816 897.669 591.166C904.191 617.682 894.377 635.176 879.002 647.591C863.625 660.008 841.833 665.365 829.958 663.706C811.129 661.076 798.218 648.394 790.945 632.883C783.672 617.374 783.246 599.365 787.846 589.846C790.935 583.452 797.214 577.895 804.392 574.632C811.57 571.369 819.443 570.655 824.38 572.118C840.286 576.831 845.392 588.322 846.316 600.69C846.71 605.968 845.942 611.05 844.742 615.252C841.917 610.253 838.72 605.174 835.197 600.751C831.787 596.474 828.312 592.603 822.914 590.359C820.216 589.237 816.726 588.661 813.268 589.644C809.81 590.629 806.919 593.053 804.967 595.778C801.506 600.612 800.538 606.03 800.514 611.85C800.49 617.673 801.708 623.958 804.739 629.884C810.802 641.736 825.637 650.645 845.469 646.554C862.703 642.997 875.573 631.698 880.216 616.663C884.859 601.626 881.6 583.975 871.261 567.19C848.918 530.912 810.433 509.189 779.691 485.323C764.321 473.39 750.89 461.052 741.831 446.927C732.772 432.801 727.784 417.051 729.104 396.361C730.443 375.356 744.578 355.234 765.077 337.215C785.576 319.195 811.838 303.714 834.541 291.647L834.551 291.643C837.657 289.986 840.006 286.589 840.791 283.594C841.573 280.597 841.325 278.03 840.843 275.763C839.881 271.231 837.849 267.512 835.097 264.207C832.346 260.902 828.763 257.093 822.047 257.492C818.69 257.69 815.116 259.751 813.078 262.359C811.143 264.834 810.185 267.529 809.557 270.425C809.523 270.381 809.059 270.942 807.037 271.779C804.106 272.995 798.945 274.079 792.622 274.464C779.978 275.228 762.648 273.451 745.757 269.092C727.242 264.314 708.244 269.064 692.504 274.008C689.2 275.046 686.856 275.861 683.879 276.872C683.957 276.56 684.123 276.258 684.192 275.946C686.282 266.365 684.817 257.021 682.882 249.021C682.295 246.592 681.642 244.559 681 242.387C693.669 246.599 708.434 248.735 722.976 247.072C741.5 244.954 760.179 235.412 769.152 215.689C779.696 213.21 787.339 207.427 792.801 201.224C798.08 195.228 801.931 189.253 806.583 184ZM795.38 222.222C787.604 222.222 781.3 228.586 781.3 236.439C781.3 244.291 787.604 250.657 795.379 250.657C803.154 250.657 809.457 244.291 809.457 236.439C809.457 228.586 803.155 222.222 795.38 222.222ZM840.826 309.739C796.331 350.324 772.597 384.353 768.602 416.068C766.604 431.927 770.064 447.028 778.163 460.128C786.262 473.227 798.683 484.435 814.601 494.476L823.748 478.894C809.349 469.814 799.097 460.183 792.975 450.287C786.856 440.388 784.549 430.334 786.049 418.432C789.048 394.63 809.362 362.734 852.448 323.434L840.826 309.739ZM940 329.773C928.7 365.694 901.548 396.817 868.705 424.765C867.016 418.662 864.94 412.592 861.853 406.93C858.636 401.033 854.046 395.601 848.169 391.689C858.078 377.377 870.404 361.479 880.637 343.717C881.566 343.712 882.495 343.682 883.423 343.626C891.47 343.124 901.547 341.283 911.934 338.711C921.754 336.281 931.619 333.175 940 329.773Z" fill="white" fill-opacity="0.3"/>
</svg>
