<svg width="1144" height="1151" viewBox="0 0 1144 1151" fill="none" xmlns="http://www.w3.org/2000/svg">
<ellipse cx="137.845" cy="137.471" rx="137.845" ry="137.471" fill="#FFB133"/>
<path d="M778.517 955.701C778.517 1063.4 690.711 1150.7 582.397 1150.7C474.082 1150.7 386.276 1063.4 386.276 955.701C386.276 848.006 474.082 760.701 582.397 760.701C690.711 760.701 778.517 848.006 778.517 955.701Z" fill="#FFB133"/>
<ellipse cx="385.816" cy="127.443" rx="47.8161" ry="47.4425" fill="#FFB133"/>
<ellipse cx="990.161" cy="165.04" rx="153.161" ry="152.04" fill="#FFB133"/>
<ellipse cx="845.046" cy="327.299" rx="53.046" ry="52.2989" fill="#FFB133"/>
<ellipse cx="936.126" cy="350.379" rx="32.1264" ry="31.3793" fill="#FFB133"/>
<ellipse cx="1028.07" cy="926.575" rx="112.069" ry="110.575" fill="#FFB133"/>
<ellipse cx="318.172" cy="204.799" rx="20.1724" ry="19.7989" fill="#FFB133"/>
<path d="M145 804C145 833.271 121.271 857 92 857C62.7289 857 39 833.271 39 804C39 774.729 62.7289 751 92 751C121.271 751 145 774.729 145 804Z" fill="#FFB133"/>
<path d="M182 829.5C182 839.717 173.717 848 163.5 848C153.283 848 145 839.717 145 829.5C145 819.283 153.283 811 163.5 811C173.717 811 182 819.283 182 829.5Z" fill="#FFB133"/>
<path d="M942.241 838.621C942.241 857.189 927.189 872.241 908.621 872.241C890.052 872.241 875 857.189 875 838.621C875 820.052 890.052 805 908.621 805C927.189 805 942.241 820.052 942.241 838.621Z" fill="#FFB133"/>
<path d="M967.161 822.58C967.161 828.976 961.976 834.161 955.58 834.161C949.185 834.161 944 828.976 944 822.58C944 816.185 949.185 811 955.58 811C961.976 811 967.161 816.185 967.161 822.58Z" fill="#FFB133"/>
<path d="M249.448 956.477C249.448 1013.63 202.786 1059.95 145.224 1059.95C87.6627 1059.95 41 1013.63 41 956.477C41 899.328 87.6627 853 145.224 853C202.786 853 249.448 899.328 249.448 956.477Z" fill="#FFB133"/>
<path d="M253.324 297C243.122 298.543 233.158 299.482 228.548 301.502C225.844 302.686 225.56 303.205 225.259 304.167C224.961 305.125 224.685 308.445 227.302 315.138L231.155 324.99L221.548 328.403C191.258 339.163 171.192 371.001 170.772 399.055C170.036 447.975 213.002 490.85 235.652 531.74C242.868 544.767 240.662 560.1 235.171 575.29C229.679 590.477 220.578 606.798 210.358 624.549C189.917 660.051 164.995 701.143 154.792 743.166C147.737 772.223 158.352 791.392 174.985 804.997C191.619 818.603 215.192 824.473 228.037 822.655C248.406 819.773 262.373 805.876 270.24 788.88C278.107 771.885 278.568 752.151 273.592 741.72C270.251 734.714 263.459 728.624 255.694 725.048C247.929 721.473 239.412 720.691 234.072 722.295C216.865 727.458 211.342 740.05 210.343 753.603C209.916 759.386 210.747 764.955 212.045 769.56C215.101 764.082 218.559 758.517 222.37 753.67C226.059 748.984 229.818 744.742 235.657 742.282C238.576 741.053 242.351 740.421 246.092 741.499C249.832 742.579 252.96 745.235 255.072 748.221C258.815 753.517 259.862 759.455 259.889 765.832C259.914 772.213 258.596 779.099 255.318 785.593C248.76 798.581 232.712 808.343 211.259 803.86C192.616 799.962 178.693 787.581 173.672 771.105C168.649 754.629 172.174 735.287 183.358 716.895C207.528 677.142 249.159 653.337 282.413 627.186C299.041 614.11 313.569 600.589 323.368 585.112C333.168 569.633 338.564 552.374 337.136 529.702C335.688 506.685 320.397 484.636 298.222 464.891C276.048 445.145 247.639 428.181 223.08 414.958L223.069 414.953C219.709 413.138 217.169 409.416 216.32 406.133C215.474 402.85 215.741 400.037 216.262 397.553C217.303 392.586 219.501 388.511 222.478 384.89C225.455 381.268 229.33 377.095 236.595 377.531C240.226 377.749 244.092 380.007 246.297 382.864C248.391 385.577 249.427 388.53 250.106 391.703C250.143 391.655 250.645 392.27 252.832 393.187C256.002 394.519 261.586 395.708 268.425 396.13C282.104 396.967 300.85 395.019 319.122 390.242C339.15 385.006 359.701 390.212 376.728 395.63C380.303 396.767 382.837 397.66 386.058 398.768C385.974 398.426 385.794 398.095 385.72 397.753C383.459 387.254 385.043 377.016 387.137 368.249C387.771 365.587 388.478 363.36 389.172 360.979C375.468 365.595 359.496 367.936 343.766 366.114C323.727 363.793 303.521 353.336 293.815 331.724C282.408 329.008 274.141 322.671 268.232 315.874C262.522 309.303 258.355 302.756 253.324 297ZM265.442 338.883C273.854 338.883 280.673 345.856 280.673 354.462C280.673 363.066 273.854 370.041 265.443 370.041C257.032 370.041 250.214 363.066 250.214 354.462C250.214 345.856 257.031 338.883 265.442 338.883ZM216.281 434.783C264.413 479.256 290.087 516.544 294.409 551.296C296.571 568.675 292.828 585.222 284.067 599.578C275.305 613.931 261.869 626.212 244.65 637.215L234.755 620.14C250.331 610.191 261.422 599.638 268.044 588.793C274.663 577.947 277.159 566.929 275.536 553.887C272.291 527.805 250.318 492.854 203.709 449.79L216.281 434.783ZM109 456.736C121.224 496.097 150.596 530.202 186.123 560.827C187.95 554.139 190.196 547.488 193.536 541.284C197.015 534.821 201.981 528.869 208.338 524.583C197.619 508.899 184.285 491.479 173.216 472.016C172.211 472.01 171.206 471.977 170.202 471.916C161.497 471.366 150.597 469.348 139.36 466.53C128.737 463.867 118.067 460.464 109 456.736Z" fill="white" fill-opacity="0.3"/>
<path d="M933.162 454C938.957 454.873 944.616 455.403 947.235 456.545C948.771 457.215 948.932 457.508 949.103 458.052C949.272 458.593 949.429 460.47 947.942 464.254L945.754 469.824L951.211 471.753C968.415 477.836 979.813 495.836 980.051 511.696C980.469 539.352 956.065 563.591 943.2 586.708C939.101 594.073 940.354 602.741 943.473 611.329C946.592 619.914 951.762 629.141 957.567 639.177C969.177 659.248 983.333 682.479 989.128 706.236C993.136 722.663 987.106 733.5 977.659 741.191C968.211 748.883 954.821 752.202 947.525 751.174C935.955 749.545 928.022 741.688 923.554 732.08C919.085 722.472 918.823 711.315 921.65 705.419C923.548 701.457 927.405 698.015 931.816 695.993C936.226 693.972 941.064 693.53 944.097 694.436C953.871 697.356 957.008 704.474 957.575 712.136C957.818 715.406 957.346 718.554 956.608 721.157C954.872 718.061 952.908 714.914 950.744 712.174C948.649 709.525 946.513 707.127 943.197 705.736C941.539 705.041 939.395 704.684 937.27 705.294C935.145 705.904 933.369 707.405 932.169 709.094C930.043 712.088 929.448 715.445 929.433 719.05C929.419 722.657 930.167 726.55 932.029 730.222C935.754 737.564 944.869 743.083 957.055 740.548C967.644 738.345 975.552 731.345 978.405 722.031C981.258 712.716 979.255 701.781 972.903 691.384C959.174 668.91 935.528 655.452 916.639 640.668C907.195 633.275 898.943 625.631 893.377 616.882C887.811 608.13 884.746 598.373 885.556 585.556C886.379 572.544 895.064 560.078 907.66 548.916C920.255 537.752 936.391 528.162 950.341 520.686L950.347 520.684C952.255 519.657 953.698 517.553 954.18 515.698C954.661 513.841 954.509 512.251 954.213 510.847C953.622 508.039 952.373 505.735 950.682 503.688C948.992 501.64 946.79 499.281 942.664 499.527C940.601 499.651 938.405 500.927 937.153 502.543C935.964 504.076 935.375 505.746 934.99 507.54C934.969 507.512 934.683 507.86 933.441 508.378C931.641 509.132 928.469 509.803 924.584 510.042C916.815 510.515 906.167 509.414 895.789 506.714C884.413 503.754 872.74 506.697 863.068 509.759C861.038 510.402 859.598 510.907 857.769 511.534C857.817 511.34 857.919 511.153 857.961 510.96C859.245 505.024 858.345 499.236 857.156 494.28C856.796 492.775 856.395 491.516 856 490.17C863.784 492.78 872.856 494.103 881.791 493.073C893.173 491.761 904.65 485.849 910.163 473.631C916.642 472.095 921.338 468.513 924.694 464.67C927.938 460.956 930.304 457.254 933.162 454ZM926.279 477.678C921.501 477.678 917.628 481.62 917.628 486.486C917.628 491.35 921.501 495.293 926.278 495.293C931.056 495.293 934.928 491.35 934.928 486.486C934.928 481.62 931.056 477.678 926.279 477.678ZM954.202 531.895C926.863 557.037 912.28 578.117 909.826 597.764C908.598 607.589 910.724 616.944 915.7 625.059C920.677 633.174 928.308 640.117 938.089 646.338L943.709 636.684C934.862 631.06 928.562 625.093 924.801 618.963C921.041 612.831 919.624 606.602 920.546 599.229C922.388 584.484 934.87 564.724 961.343 540.378L954.202 531.895ZM1015.14 544.305C1008.19 566.558 991.511 585.838 971.332 603.152C970.294 599.371 969.018 595.611 967.122 592.104C965.146 588.45 962.325 585.085 958.714 582.662C964.803 573.795 972.376 563.947 978.663 552.944C979.234 552.94 979.805 552.922 980.375 552.887C985.32 552.576 991.511 551.436 997.893 549.842C1003.93 548.337 1009.99 546.413 1015.14 544.305Z" fill="white" fill-opacity="0.3"/>
<path d="M351.185 647C355.555 647.66 359.822 648.062 361.797 648.926C362.955 649.433 363.077 649.654 363.205 650.066C363.333 650.476 363.451 651.896 362.33 654.759L360.68 658.974L364.795 660.433C377.768 665.036 386.363 678.656 386.543 690.657C386.858 711.583 368.455 729.924 358.754 747.416C355.663 752.989 356.608 759.548 358.96 766.046C361.312 772.542 365.21 779.524 369.588 787.117C378.343 802.304 389.017 819.883 393.387 837.859C396.409 850.288 391.862 858.489 384.738 864.308C377.614 870.129 367.517 872.64 362.015 871.862C353.291 870.629 347.309 864.685 343.94 857.414C340.57 850.144 340.373 841.702 342.504 837.24C343.935 834.243 346.844 831.638 350.17 830.109C353.496 828.579 357.143 828.245 359.431 828.931C366.801 831.139 369.166 836.526 369.594 842.323C369.777 844.797 369.421 847.179 368.865 849.149C367.556 846.806 366.075 844.425 364.443 842.352C362.863 840.347 361.253 838.533 358.752 837.481C357.502 836.955 355.885 836.685 354.282 837.146C352.68 837.608 351.341 838.744 350.436 840.021C348.833 842.287 348.385 844.827 348.373 847.555C348.362 850.284 348.927 853.23 350.331 856.008C353.14 861.564 360.013 865.74 369.202 863.822C377.187 862.155 383.15 856.858 385.301 849.811C387.452 842.762 385.942 834.488 381.152 826.621C370.8 809.615 352.969 799.432 338.726 788.245C331.604 782.652 325.382 776.868 321.184 770.247C316.987 763.626 314.676 756.242 315.287 746.544C315.908 736.698 322.457 727.266 331.955 718.82C341.452 710.373 353.62 703.116 364.139 697.459L364.143 697.458C365.583 696.681 366.671 695.089 367.034 693.685C367.397 692.28 367.282 691.077 367.059 690.014C366.613 687.889 365.671 686.146 364.396 684.597C363.121 683.048 361.462 681.263 358.35 681.449C356.795 681.542 355.139 682.508 354.195 683.731C353.298 684.891 352.854 686.154 352.563 687.512C352.547 687.491 352.332 687.754 351.396 688.146C350.038 688.716 347.646 689.225 344.717 689.405C338.858 689.763 330.829 688.93 323.003 686.887C314.425 684.647 305.623 686.874 298.33 689.191C296.799 689.678 295.713 690.06 294.334 690.534C294.37 690.387 294.447 690.246 294.479 690.1C295.447 685.608 294.769 681.229 293.872 677.479C293.6 676.34 293.298 675.387 293 674.369C298.87 676.343 305.711 677.345 312.448 676.565C321.031 675.572 329.685 671.099 333.842 661.854C338.728 660.692 342.269 657.981 344.8 655.074C347.246 652.263 349.03 649.462 351.185 647ZM345.995 664.916C342.392 664.916 339.471 667.9 339.471 671.581C339.471 675.261 342.392 678.245 345.994 678.245C349.597 678.245 352.517 675.261 352.517 671.581C352.517 667.9 349.597 664.916 345.995 664.916ZM367.051 705.94C346.435 724.964 335.439 740.915 333.588 755.782C332.662 763.216 334.265 770.294 338.017 776.435C341.77 782.575 347.525 787.829 354.9 792.536L359.138 785.231C352.467 780.975 347.717 776.461 344.88 771.822C342.045 767.182 340.976 762.469 341.671 756.89C343.061 745.733 352.473 730.781 372.435 712.36L367.051 705.94ZM413 715.331C407.764 732.169 395.184 746.758 379.968 759.859C379.185 756.998 378.223 754.152 376.793 751.499C375.303 748.734 373.176 746.188 370.453 744.354C375.044 737.645 380.755 730.193 385.496 721.867C385.926 721.865 386.357 721.851 386.787 721.825C390.515 721.59 395.184 720.726 399.996 719.521C404.546 718.382 409.117 716.926 413 715.331Z" fill="white" fill-opacity="0.3"/>
<path d="M802.427 693C806.214 693.569 809.912 693.915 811.624 694.66C812.628 695.097 812.733 695.289 812.845 695.643C812.955 695.997 813.058 697.221 812.086 699.69L810.656 703.324L814.222 704.582C825.466 708.551 832.914 720.294 833.07 730.642C833.343 748.685 817.394 764.499 808.987 779.581C806.308 784.386 807.127 790.041 809.165 795.644C811.204 801.245 814.582 807.265 818.376 813.812C825.964 826.907 835.215 842.063 839.002 857.563C841.621 868.28 837.68 875.35 831.506 880.368C825.332 885.387 816.581 887.552 811.813 886.881C804.253 885.818 799.068 880.692 796.148 874.424C793.227 868.155 793.056 860.877 794.903 857.029C796.144 854.445 798.665 852.199 801.547 850.88C804.43 849.561 807.591 849.273 809.573 849.865C815.96 851.769 818.011 856.413 818.382 861.412C818.54 863.545 818.232 865.599 817.75 867.298C816.615 865.277 815.332 863.225 813.917 861.437C812.548 859.708 811.152 858.144 808.985 857.237C807.902 856.783 806.5 856.55 805.111 856.948C803.723 857.346 802.562 858.326 801.778 859.427C800.389 861.381 800 863.571 799.99 865.923C799.981 868.276 800.47 870.816 801.687 873.211C804.121 878.002 810.078 881.603 818.042 879.949C824.962 878.511 830.13 873.945 831.994 867.868C833.858 861.791 832.55 854.656 828.398 847.873C819.426 833.21 803.973 824.431 791.629 814.785C785.457 809.962 780.064 804.975 776.426 799.267C772.789 793.557 770.786 787.191 771.316 778.829C771.854 770.34 777.529 762.207 785.761 754.925C793.992 747.641 804.537 741.384 813.654 736.507L813.657 736.506C814.905 735.836 815.848 734.463 816.163 733.252C816.477 732.041 816.378 731.004 816.184 730.088C815.798 728.256 814.982 726.753 813.877 725.417C812.772 724.081 811.333 722.542 808.637 722.703C807.289 722.783 805.854 723.616 805.035 724.67C804.258 725.671 803.873 726.76 803.621 727.93C803.608 727.912 803.421 728.139 802.609 728.477C801.433 728.969 799.36 729.407 796.821 729.563C791.744 729.871 784.785 729.153 778.003 727.391C770.568 725.46 762.94 727.38 756.619 729.378C755.292 729.798 754.352 730.127 753.156 730.536C753.187 730.41 753.254 730.288 753.282 730.161C754.121 726.289 753.533 722.513 752.756 719.279C752.52 718.298 752.258 717.476 752 716.598C757.087 718.3 763.016 719.164 768.855 718.492C776.293 717.636 783.794 713.779 787.397 705.808C791.631 704.806 794.7 702.468 796.893 699.961C799.013 697.538 800.559 695.123 802.427 693ZM797.929 708.448C794.806 708.448 792.275 711.02 792.275 714.194C792.275 717.367 794.806 719.94 797.928 719.94C801.05 719.94 803.581 717.367 803.581 714.194C803.581 711.02 801.051 708.448 797.929 708.448ZM816.177 743.82C798.311 760.223 788.78 773.976 787.176 786.794C786.374 793.204 787.763 799.307 791.015 804.602C794.268 809.896 799.255 814.426 805.647 818.484L809.32 812.186C803.538 808.517 799.421 804.624 796.963 800.624C794.506 796.624 793.579 792.56 794.182 787.75C795.386 778.13 803.543 765.238 820.844 749.354L816.177 743.82ZM856 751.917C851.462 766.435 840.56 779.014 827.372 790.309C826.694 787.843 825.86 785.389 824.62 783.101C823.329 780.717 821.486 778.522 819.126 776.941C823.105 771.156 828.054 764.731 832.163 757.552C832.536 757.55 832.909 757.538 833.282 757.515C836.513 757.313 840.559 756.569 844.73 755.529C848.674 754.547 852.634 753.292 856 751.917Z" fill="white" fill-opacity="0.3"/>
<path d="M452.456 259C456.02 259.533 459.501 259.857 461.111 260.554C462.056 260.963 462.155 261.142 462.26 261.474C462.364 261.804 462.461 262.951 461.547 265.261L460.201 268.661L463.557 269.839C474.138 273.553 481.148 284.543 481.295 294.227C481.552 311.112 466.542 325.911 458.63 340.025C456.109 344.522 456.88 349.814 458.798 355.058C460.716 360.299 463.896 365.933 467.466 372.06C474.606 384.314 483.313 398.498 486.877 413.003C489.342 423.033 485.633 429.649 479.823 434.345C474.012 439.042 465.777 441.068 461.29 440.44C454.174 439.446 449.295 434.649 446.547 428.782C443.799 422.916 443.638 416.104 445.376 412.504C446.543 410.086 448.916 407.984 451.629 406.75C454.341 405.515 457.316 405.246 459.182 405.799C465.193 407.581 467.122 411.928 467.471 416.606C467.62 418.602 467.33 420.524 466.876 422.114C465.809 420.223 464.601 418.302 463.27 416.629C461.981 415.011 460.668 413.547 458.628 412.698C457.608 412.274 456.29 412.056 454.983 412.428C453.676 412.801 452.583 413.717 451.846 414.748C450.538 416.576 450.172 418.626 450.163 420.827C450.154 423.029 450.615 425.406 451.76 427.648C454.051 432.131 459.657 435.501 467.151 433.953C473.664 432.608 478.527 428.334 480.282 422.647C482.036 416.96 480.805 410.284 476.898 403.935C468.454 390.214 453.911 381.997 442.294 372.97C436.486 368.457 431.411 363.79 427.988 358.448C424.564 353.105 422.679 347.147 423.178 339.322C423.684 331.377 429.026 323.766 436.772 316.951C444.518 310.135 454.442 304.28 463.022 299.716L463.025 299.714C464.199 299.087 465.087 297.803 465.383 296.67C465.679 295.536 465.585 294.565 465.403 293.708C465.04 291.994 464.272 290.587 463.232 289.337C462.192 288.087 460.838 286.646 458.3 286.797C457.032 286.872 455.681 287.652 454.911 288.638C454.18 289.574 453.818 290.593 453.58 291.689C453.568 291.672 453.392 291.884 452.628 292.201C451.521 292.661 449.57 293.071 447.181 293.217C442.403 293.506 435.854 292.833 429.471 291.184C422.475 289.377 415.295 291.174 409.347 293.044C408.099 293.437 407.213 293.745 406.088 294.127C406.117 294.009 406.18 293.895 406.206 293.777C406.996 290.153 406.442 286.619 405.711 283.593C405.489 282.674 405.243 281.905 405 281.084C409.787 282.677 415.367 283.485 420.862 282.856C427.862 282.055 434.921 278.446 438.312 270.986C442.296 270.048 445.184 267.861 447.249 265.515C449.243 263.247 450.699 260.987 452.456 259ZM448.223 273.457C445.284 273.457 442.903 275.864 442.903 278.834C442.903 281.804 445.284 284.212 448.223 284.212C451.161 284.212 453.543 281.804 453.543 278.834C453.543 275.864 451.161 273.457 448.223 273.457ZM465.397 306.559C448.582 321.909 439.614 334.78 438.104 346.776C437.349 352.774 438.656 358.486 441.717 363.441C444.778 368.395 449.471 372.634 455.487 376.432L458.943 370.538C453.502 367.104 449.627 363.462 447.314 359.718C445.002 355.974 444.13 352.171 444.697 347.67C445.83 338.667 453.507 326.603 469.788 311.738L465.397 306.559ZM502.874 314.136C498.603 327.723 488.343 339.494 475.932 350.065C475.294 347.757 474.509 345.461 473.342 343.32C472.127 341.089 470.392 339.034 468.171 337.555C471.916 332.141 476.574 326.128 480.441 319.41C480.792 319.408 481.143 319.397 481.494 319.376C484.535 319.186 488.342 318.49 492.268 317.517C495.979 316.598 499.706 315.423 502.874 314.136Z" fill="white" fill-opacity="0.3"/>
<path d="M709.826 158C716.872 159.052 723.754 159.692 726.938 161.069C728.805 161.877 729.002 162.231 729.209 162.886C729.415 163.54 729.606 165.803 727.798 170.367L725.138 177.084L731.773 179.411C752.693 186.747 766.552 208.455 766.842 227.583C767.35 260.938 737.675 290.17 722.032 318.05C717.048 326.932 718.571 337.386 722.364 347.743C726.157 358.098 732.443 369.226 739.501 381.329C753.619 405.535 770.832 433.552 777.879 462.204C782.752 482.015 775.42 495.085 763.932 504.361C752.444 513.638 736.162 517.641 727.291 516.401C713.223 514.436 703.576 504.961 698.143 493.373C692.709 481.785 692.39 468.33 695.827 461.218C698.135 456.441 702.826 452.289 708.189 449.851C713.552 447.413 719.434 446.88 723.123 447.974C735.007 451.494 738.821 460.08 739.512 469.32C739.807 473.263 739.233 477.06 738.336 480.2C736.225 476.465 733.837 472.67 731.205 469.366C728.657 466.171 726.061 463.278 722.028 461.601C720.012 460.763 717.405 460.333 714.821 461.068C712.238 461.804 710.077 463.615 708.619 465.65C706.033 469.262 705.31 473.31 705.292 477.658C705.274 482.008 706.184 486.704 708.449 491.132C712.978 499.987 724.062 506.643 738.879 503.586C751.755 500.929 761.371 492.487 764.839 481.254C768.308 470.02 765.873 456.832 758.149 444.292C741.456 417.187 712.703 400.957 689.735 383.127C678.251 374.211 668.217 364.993 661.449 354.44C654.681 343.886 650.954 332.118 651.94 316.66C652.94 300.967 663.501 285.933 678.816 272.471C694.132 259.008 713.752 247.441 730.715 238.426L730.722 238.423C733.043 237.185 734.797 234.647 735.384 232.409C735.968 230.17 735.783 228.253 735.423 226.559C734.704 223.172 733.186 220.394 731.13 217.925C729.074 215.455 726.398 212.61 721.38 212.908C718.872 213.056 716.202 214.596 714.679 216.544C713.233 218.394 712.517 220.407 712.048 222.57C712.023 222.537 711.676 222.957 710.166 223.582C707.976 224.49 704.12 225.301 699.396 225.588C689.949 226.159 677.001 224.831 664.382 221.574C650.549 218.004 636.355 221.554 624.595 225.248C622.126 226.023 620.375 226.632 618.151 227.387C618.209 227.154 618.333 226.928 618.385 226.695C619.946 219.537 618.852 212.556 617.406 206.579C616.968 204.764 616.48 203.245 616 201.622C625.465 204.769 636.496 206.365 647.361 205.123C661.201 203.541 675.156 196.411 681.86 181.675C689.739 179.824 695.448 175.503 699.53 170.869C703.473 166.389 706.351 161.925 709.826 158ZM701.456 186.556C695.646 186.556 690.937 191.311 690.937 197.179C690.937 203.045 695.646 207.801 701.456 207.801C707.265 207.801 711.974 203.045 711.974 197.179C711.974 191.311 707.265 186.556 701.456 186.556ZM735.41 251.943C702.167 282.265 684.435 307.689 681.45 331.384C679.957 343.233 682.542 354.515 688.593 364.303C694.644 374.089 703.924 382.463 715.817 389.965L722.651 378.323C711.893 371.539 704.233 364.344 699.66 356.95C695.088 349.554 693.364 342.042 694.485 333.15C696.726 315.367 711.902 291.537 744.093 262.175L735.41 251.943ZM809.506 266.911C801.063 293.748 780.777 317.001 756.239 337.882C754.977 333.322 753.426 328.787 751.12 324.557C748.717 320.151 745.287 316.093 740.896 313.17C748.3 302.477 757.509 290.599 765.154 277.329C765.848 277.325 766.542 277.303 767.236 277.261C773.248 276.886 780.776 275.51 788.537 273.589C795.874 271.773 803.244 269.453 809.506 266.911Z" fill="white" fill-opacity="0.3"/>
</svg>
