<svg width="1rem" height="1rem" viewBox="0 0 650 650" fill="none" xmlns="http://www.w3.org/2000/svg">
<path d="M0 0H650V650H0V0Z" fill="#333333"/>
<g clip-path="url(#clip0_289_159)">
<path d="M322.494 150.241C324.155 149.92 325.869 149.92 327.53 150.241L434.662 171.649C440.661 172.827 445 178.125 445 184.227C445 190.328 440.661 195.627 434.662 196.804L393.577 205.046V235.607C393.577 273.446 362.883 304.113 325.012 304.113C287.141 304.113 256.447 273.446 256.447 235.607V205.046L230.736 199.908V234.75L239.145 276.711C239.628 279.226 238.985 281.849 237.378 283.829C235.771 285.809 233.307 286.987 230.736 286.987H213.594C211.023 286.987 208.613 285.863 206.952 283.829C205.292 281.795 204.649 279.226 205.185 276.711L213.594 234.75V196.322C208.506 194.556 205.024 189.739 205.024 184.227C205.024 178.125 209.363 172.827 215.362 171.649L322.494 150.241ZM264.964 325.361C270.589 323.541 276.642 325.575 280.713 329.91L318.745 370.319C322.119 373.904 327.851 373.904 331.226 370.319L369.258 329.91C373.329 325.575 379.382 323.541 385.006 325.361C419.824 336.547 445 369.088 445 407.569C445 416.668 437.608 424 428.555 424H221.469C212.416 424 205.024 416.614 205.024 407.569C205.024 369.088 230.2 336.547 264.964 325.361Z" fill="white"/>
</g>
<path d="M116.805 487H108.237L121.293 449.182H131.597L144.634 487H136.065L126.592 457.824H126.297L116.805 487ZM116.27 472.135H136.509V478.376H116.27V472.135ZM175.145 449.182H183.14V473.741C183.14 476.499 182.482 478.912 181.165 480.98C179.86 483.048 178.032 484.661 175.68 485.818C173.329 486.963 170.59 487.536 167.463 487.536C164.324 487.536 161.578 486.963 159.227 485.818C156.876 484.661 155.048 483.048 153.743 480.98C152.438 478.912 151.785 476.499 151.785 473.741V449.182H159.781V473.058C159.781 474.499 160.095 475.779 160.723 476.899C161.363 478.019 162.262 478.9 163.419 479.54C164.576 480.18 165.924 480.5 167.463 480.5C169.014 480.5 170.362 480.18 171.507 479.54C172.664 478.9 173.557 478.019 174.185 476.899C174.825 475.779 175.145 474.499 175.145 473.058V449.182ZM225.687 462.422H217.599C217.451 461.375 217.149 460.446 216.694 459.634C216.238 458.809 215.654 458.107 214.94 457.528C214.226 456.95 213.401 456.507 212.465 456.199C211.542 455.891 210.539 455.737 209.455 455.737C207.498 455.737 205.793 456.223 204.34 457.196C202.888 458.156 201.761 459.56 200.961 461.406C200.161 463.241 199.761 465.469 199.761 468.091C199.761 470.787 200.161 473.052 200.961 474.886C201.774 476.721 202.906 478.106 204.359 479.041C205.811 479.977 207.492 480.445 209.4 480.445C210.471 480.445 211.462 480.303 212.373 480.02C213.296 479.737 214.115 479.324 214.829 478.783C215.543 478.229 216.134 477.558 216.602 476.77C217.082 475.982 217.414 475.083 217.599 474.074L225.687 474.111C225.478 475.847 224.954 477.521 224.117 479.134C223.292 480.734 222.178 482.168 220.775 483.436C219.384 484.692 217.722 485.689 215.789 486.428C213.869 487.154 211.696 487.517 209.271 487.517C205.898 487.517 202.881 486.754 200.222 485.227C197.576 483.701 195.483 481.491 193.944 478.598C192.417 475.705 191.654 472.203 191.654 468.091C191.654 463.967 192.43 460.458 193.981 457.565C195.532 454.672 197.637 452.469 200.296 450.955C202.955 449.428 205.947 448.665 209.271 448.665C211.462 448.665 213.493 448.973 215.364 449.588C217.248 450.204 218.916 451.102 220.369 452.284C221.821 453.454 223.003 454.888 223.914 456.587C224.837 458.286 225.428 460.231 225.687 462.422ZM257.38 449.182H265.376V473.741C265.376 476.499 264.717 478.912 263.4 480.98C262.095 483.048 260.267 484.661 257.915 485.818C255.564 486.963 252.825 487.536 249.698 487.536C246.559 487.536 243.814 486.963 241.462 485.818C239.111 484.661 237.283 483.048 235.978 480.98C234.673 478.912 234.021 476.499 234.021 473.741V449.182H242.016V473.058C242.016 474.499 242.33 475.779 242.958 476.899C243.598 478.019 244.497 478.9 245.654 479.54C246.811 480.18 248.159 480.5 249.698 480.5C251.249 480.5 252.597 480.18 253.742 479.54C254.899 478.9 255.792 478.019 256.42 476.899C257.06 475.779 257.38 474.499 257.38 473.058V449.182ZM306.186 449.182V487H299.28L282.827 463.197H282.55V487H274.554V449.182H281.571L297.895 472.966H298.227V449.182H306.186ZM315.392 487V449.182H340.875V455.774H323.388V464.786H339.564V471.378H323.388V480.408H340.949V487H315.392ZM372.463 449.182V487H364.467V449.182H372.463ZM381.642 449.182H391.502L401.917 474.591H402.36L412.775 449.182H422.636V487H414.88V462.385H414.566L404.779 486.815H399.498L389.711 462.293H389.397V487H381.642V449.182ZM438.342 487H429.774L442.829 449.182H453.133L466.17 487H457.602L448.129 457.824H447.834L438.342 487ZM437.807 472.135H458.045V478.376H437.807V472.135ZM496.621 461.406C496.363 460.508 496 459.714 495.532 459.024C495.064 458.322 494.492 457.732 493.815 457.251C493.15 456.759 492.387 456.384 491.525 456.125C490.675 455.866 489.734 455.737 488.7 455.737C486.767 455.737 485.068 456.217 483.603 457.178C482.15 458.138 481.018 459.535 480.205 461.369C479.393 463.191 478.987 465.42 478.987 468.054C478.987 470.688 479.387 472.929 480.187 474.776C480.987 476.622 482.12 478.032 483.585 479.004C485.049 479.964 486.779 480.445 488.773 480.445C490.583 480.445 492.128 480.125 493.408 479.484C494.701 478.832 495.686 477.915 496.363 476.733C497.052 475.551 497.397 474.154 497.397 472.541L499.022 472.781H489.272V466.761H505.097V471.526C505.097 474.849 504.396 477.705 502.992 480.094C501.589 482.47 499.656 484.304 497.194 485.597C494.732 486.877 491.913 487.517 488.737 487.517C485.191 487.517 482.076 486.735 479.393 485.172C476.709 483.596 474.616 481.362 473.114 478.469C471.625 475.563 470.88 472.116 470.88 468.128C470.88 465.062 471.323 462.33 472.21 459.929C473.108 457.516 474.364 455.473 475.977 453.798C477.589 452.124 479.467 450.85 481.609 449.976C483.751 449.102 486.071 448.665 488.57 448.665C490.712 448.665 492.707 448.979 494.553 449.607C496.4 450.222 498.037 451.096 499.465 452.229C500.906 453.361 502.081 454.709 502.992 456.273C503.903 457.824 504.488 459.535 504.746 461.406H496.621ZM513.703 487V449.182H539.186V455.774H521.699V464.786H537.875V471.378H521.699V480.408H539.26V487H513.703Z" fill="white"/>
<defs>
<clipPath id="clip0_289_159">
<rect width="240" height="274" fill="white" transform="translate(205 150)"/>
</clipPath>
</defs>
</svg>
