<svg width="65" height="65" viewBox="0 0 65 65" fill="none" xmlns="http://www.w3.org/2000/svg">
<path d="M19.7932 10.2314C19.7932 9.37435 19.4562 8.55244 18.8564 7.94645C18.2566 7.34045 17.4431 7 16.5949 7H10.1983C9.35005 7 8.53655 7.34045 7.93676 7.94645C7.33696 8.55244 7 9.37435 7 10.2314V55.4705C7 56.3275 7.33696 57.1494 7.93676 57.7554C8.53655 58.3614 9.35005 58.7018 10.1983 58.7018H16.5949C17.4431 58.7018 18.2566 58.3614 18.8564 57.7554C19.4562 57.1494 19.7932 56.3275 19.7932 55.4705M19.7932 10.2314V55.4705M19.7932 10.2314C19.7932 9.37435 20.1301 8.55244 20.7299 7.94645C21.3297 7.34045 22.1432 7 22.9915 7H29.388C30.2363 7 31.0498 7.34045 31.6496 7.94645C32.2494 8.55244 32.5863 9.37435 32.5863 10.2314V55.4705C32.5863 56.3275 32.2494 57.1494 31.6496 57.7554C31.0498 58.3614 30.2363 58.7018 29.388 58.7018H22.9915C22.1432 58.7018 21.3297 58.3614 20.7299 57.7554C20.1301 57.1494 19.7932 56.3275 19.7932 55.4705M7 19.9255H19.7932M19.7932 45.7764H32.5863" stroke="#333333" stroke-width="4" stroke-linecap="round" stroke-linejoin="round"/>
<path d="M35.7846 23.1585L48.5778 19.9272M42.1812 45.7781L54.7281 42.6114M35.1546 8.81128L42.1396 7.09866C43.9371 6.66242 45.7633 7.71262 46.2398 9.46402L58.0575 52.8225C58.266 53.6163 58.1737 54.4601 57.7986 55.1887C57.4236 55.9173 56.7928 56.4782 56.0298 56.7615L55.6044 56.894L48.6194 58.6066C46.8219 59.0428 44.9957 57.9927 44.5192 56.2413L32.7015 12.8828C32.493 12.089 32.5853 11.2452 32.9604 10.5166C33.3355 9.78797 33.9662 9.22708 34.7292 8.94376L35.1546 8.81128Z" stroke="#333333" stroke-width="4" stroke-linecap="round" stroke-linejoin="round"/>
</svg>
