<svg width="65" height="65" viewBox="0 0 65 65" fill="none" xmlns="http://www.w3.org/2000/svg">
<path d="M8.125 8.12498H16.25V16.25H8.125V8.12498Z" fill="#333333"/>
<path d="M24.375 0V24.375H0V0H24.375ZM20.3125 4.0625H4.0625V20.3125H20.3125V4.0625ZM16.25 48.75H8.125V56.875H16.25V48.75Z" fill="#333333"/>
<path d="M24.375 40.625V65H0V40.625H24.375ZM4.0625 44.6875V60.9375H20.3125V44.6875H4.0625ZM48.75 8.12498H56.875V16.25H48.75V8.12498Z" fill="#333333"/>
<path d="M40.625 0V24.375H65V0H40.625ZM60.9375 4.0625V20.3125H44.6875V4.0625H60.9375ZM32.5 4.0625V0H36.5625V8.125H32.5V16.25H28.4375V4.0625H32.5ZM32.5 24.375V16.25H36.5625V24.375H32.5ZM24.375 32.5V28.4375H28.4375V24.375H32.5V32.5H36.5625V28.4375H56.875V32.5H40.625V36.5625H28.4375V32.5H24.375ZM24.375 32.5V36.5625H8.125V32.5H4.0625V36.5625H0V28.4375H12.1875V32.5H24.375ZM65 36.5625H60.9375V28.4375H65V36.5625ZM60.9375 36.5625H56.875V44.6875H65V40.625H60.9375V36.5625ZM44.6875 36.5625H52.8125V40.625H48.75V44.6875H44.6875V36.5625ZM52.8125 48.75V44.6875H48.75V48.75H44.6875V52.8125H36.5625V56.875H48.75V48.75H52.8125ZM52.8125 48.75H65V52.8125H56.875V56.875H52.8125V48.75ZM36.5625 44.6875V48.75H40.625V40.625H28.4375V44.6875H36.5625Z" fill="#333333"/>
<path d="M28.4375 48.75H32.5V60.9375H48.75V65H28.4375V48.75ZM65 56.875V65H52.8125V60.9375H60.9375V56.875H65Z" fill="#333333"/>
</svg>
