<svg width="131" height="131" viewBox="0 0 131 131" fill="none" xmlns="http://www.w3.org/2000/svg">
<path d="M20.7754 20.7754H35.5507V35.5507H20.7754V20.7754Z" fill="#333333"/>
<path d="M50.326 6V50.326H6V6H50.326ZM42.9383 13.3877H13.3877V42.9383H42.9383V13.3877ZM35.5507 94.652H20.7753V109.427H35.5507V94.652Z" fill="#333333"/>
<path d="M50.326 79.8767V124.203H6V79.8767H50.326ZM13.3877 87.2644V116.815H42.9383V87.2644H13.3877ZM94.652 20.7754H109.427V35.5507H94.652V20.7754Z" fill="#333333"/>
<path d="M79.8767 6V50.326H124.203V6H79.8767ZM116.815 13.3877V42.9383H87.2643V13.3877H116.815ZM65.1013 13.3877V6H72.489V20.7753H65.1013V35.5507H57.7137V13.3877H65.1013ZM65.1013 50.326V35.5507H72.489V50.326H65.1013ZM50.326 65.1013V57.7137H57.7137V50.326H65.1013V65.1013H72.489V57.7137H109.427V65.1013H79.8767V72.489H57.7137V65.1013H50.326ZM50.326 65.1013V72.489H20.7753V65.1013H13.3877V72.489H6V57.7137H28.163V65.1013H50.326ZM124.203 72.489H116.815V57.7137H124.203V72.489ZM116.815 72.489H109.427V87.2643H124.203V79.8767H116.815V72.489ZM87.2643 72.489H102.04V79.8767H94.652V87.2643H87.2643V72.489ZM102.04 94.652V87.2643H94.652V94.652H87.2643V102.04H72.489V109.427H94.652V94.652H102.04ZM102.04 94.652H124.203V102.04H109.427V109.427H102.04V94.652ZM72.489 87.2643V94.652H79.8767V79.8767H57.7137V87.2643H72.489Z" fill="#333333"/>
<path d="M57.7139 94.6521H65.1015V116.815H94.6522V124.203H57.7139V94.6521ZM124.203 109.427V124.203H102.04V116.815H116.815V109.427H124.203Z" fill="#333333"/>
</svg>
