<svg width="65" height="65" viewBox="0 0 70 70" fill="none" xmlns="http://www.w3.org/2000/svg">
<path opacity="0.2" d="M65.0528 11.4625L36.7444 20.6938L8.43611 11.4625L36.7444 2.23125L65.0528 11.4625Z" fill="#333333"/>
<path d="M64.8865 11.6645L36.5782 2.43327C36.0939 2.27534 35.5703 2.27534 35.0861 2.43327L6.77775 11.6645C6.34957 11.8058 5.97188 12.0644 5.6896 12.4096C5.40731 12.7548 5.23231 13.1721 5.1854 13.6117C5.17156 13.6918 5.16466 13.7729 5.16476 13.8541V36.9322C5.16476 37.5443 5.4133 38.1313 5.8557 38.5641C6.29811 38.9969 6.89814 39.24 7.52379 39.24C8.14944 39.24 8.74947 38.9969 9.19187 38.5641C9.63428 38.1313 9.88282 37.5443 9.88282 36.9322V17.0562L19.7878 20.2842C17.1562 24.4435 16.3193 29.4544 17.461 34.2168C18.6027 38.9791 21.6296 43.1036 25.877 45.6846C20.5692 47.7212 15.9809 51.4051 12.6252 56.4419C12.4507 56.6956 12.3294 56.9808 12.2686 57.2808C12.2077 57.5808 12.2084 57.8896 12.2706 58.1893C12.3328 58.4891 12.4553 58.7737 12.6309 59.0267C12.8065 59.2797 13.0318 59.4961 13.2937 59.6632C13.5555 59.8302 13.8487 59.9447 14.1562 60C14.4637 60.0553 14.7794 60.0502 15.0848 59.985C15.3903 59.9199 15.6795 59.796 15.9355 59.6206C16.1916 59.4452 16.4095 59.2217 16.5766 58.9632C21.0204 52.2936 28.0385 48.4713 35.8321 48.4713C43.6258 48.4713 45.5 47.5 51 53C51 53 51.1942 53.2989 51.5877 52.8916C52 52.4647 52 52.5 52.5 52C53 51.5 53.5 51 53.5 51C50 48 50.5 48 45.7872 45.6846C50.0306 43.1037 53.0546 38.9819 54.1961 34.223C55.3376 29.4642 54.5034 24.4567 51.8765 20.2986L64.8865 16.058C65.3563 15.9049 65.765 15.6111 66.0546 15.2181C66.3442 14.8251 66.5 14.3529 66.5 13.8685C66.5 13.384 66.3442 12.9119 66.0546 12.5189C65.765 12.1259 65.3563 11.832 64.8865 11.6789V11.6645ZM49.9863 30.0088C49.9869 32.1979 49.457 34.3559 48.44 36.3059C47.423 38.2559 45.9479 39.9422 44.1357 41.2264C42.3235 42.5107 40.2259 43.3563 38.015 43.6939C35.804 44.0315 33.5428 43.8515 31.4168 43.1686C29.2907 42.4857 27.3605 41.3194 25.7844 39.7654C24.2083 38.2114 23.0313 36.314 22.35 34.2288C21.6687 32.1436 21.5024 29.9301 21.8649 27.7699C22.2273 25.6097 23.1081 23.5643 24.4351 21.8016L35.0861 25.2633C35.5703 25.4212 36.0939 25.4212 36.5782 25.2633L47.2292 21.8016C49.0214 24.1786 49.9877 27.055 49.9863 30.0088ZM35.8321 20.6535L14.9842 13.8541L35.8321 7.05467L56.68 13.8541L35.8321 20.6535Z" fill="#333333"/>
<path d="M57.043 46C57.4091 46 57.7602 46.1423 58.0191 46.3955C58.278 46.6488 58.4234 46.9923 58.4234 47.3504V55.4529H66.7056C67.0717 55.4529 67.4228 55.5951 67.6817 55.8484C67.9406 56.1016 68.086 56.4451 68.086 56.8033C68.086 57.1614 67.9406 57.5049 67.6817 57.7581C67.4228 58.0114 67.0717 58.1537 66.7056 58.1537H58.4234V66.2561C58.4234 66.6143 58.278 66.9578 58.0191 67.211C57.7602 67.4643 57.4091 67.6065 57.043 67.6065C56.6769 67.6065 56.3258 67.4643 56.0669 67.211C55.8081 66.9578 55.6626 66.6143 55.6626 66.2561V58.1537H47.3804C47.0143 58.1537 46.6632 58.0114 46.4043 57.7581C46.1454 57.5049 46 57.1614 46 56.8033C46 56.4451 46.1454 56.1016 46.4043 55.8484C46.6632 55.5951 47.0143 55.4529 47.3804 55.4529H55.6626V47.3504C55.6626 46.9923 55.8081 46.6488 56.0669 46.3955C56.3258 46.1423 56.6769 46 57.043 46Z" fill="#333333" stroke="#333333" stroke-width="1.2"/>
</svg>
