<svg width="65" height="65" viewBox="0 0 109 112" fill="none" xmlns="http://www.w3.org/2000/svg">
<path opacity="0.2" d="M61.0528 20.4625L32.7444 29.6938L4.43611 20.4625L32.7444 11.2313L61.0528 20.4625Z" fill="#333333"/>
<path d="M60.8865 20.6645L32.5782 11.4333C32.0939 11.2753 31.5703 11.2753 31.0861 11.4333L2.77775 20.6645C2.34957 20.8058 1.97188 21.0644 1.6896 21.4096C1.40731 21.7548 1.23231 22.1721 1.1854 22.6117C1.17156 22.6918 1.16466 22.7729 1.16476 22.8541V45.9322C1.16476 46.5443 1.4133 47.1313 1.8557 47.5641C2.29811 47.9969 2.89814 48.24 3.52379 48.24C4.14944 48.24 4.74947 47.9969 5.19187 47.5641C5.63428 47.1313 5.88282 46.5443 5.88282 45.9322V26.0562L15.7878 29.2842C13.1562 33.4435 12.3193 38.4544 13.461 43.2168C14.6027 47.9791 17.6296 52.1036 21.877 54.6846C16.5692 56.7212 11.9809 60.4051 8.62519 65.4419C8.45066 65.6956 8.32944 65.9808 8.26856 66.2808C8.20768 66.5808 8.20837 66.8896 8.27057 67.1893C8.33277 67.4891 8.45525 67.7737 8.63089 68.0267C8.80653 68.2797 9.03183 68.4961 9.29368 68.6632C9.55554 68.8302 9.84873 68.9447 10.1562 69C10.4637 69.0553 10.7794 69.0502 11.0848 68.985C11.3903 68.9199 11.6795 68.796 11.9355 68.6206C12.1916 68.4452 12.4095 68.2217 12.5766 67.9632C17.0204 61.2936 24.0385 57.4713 31.8321 57.4713C39.6258 57.4713 35 57 41 58.5C41 58.5 41.6065 57.9074 42 57.5C42.4123 57.0731 42.5 57 43 56.5C43.5 56 43.5 56 43.5 56C41 54 46 58 41.7872 54.6846C46.0306 52.1037 49.0546 47.9819 50.1961 43.223C51.3376 38.4642 50.5034 33.4567 47.8765 29.2986L60.8865 25.058C61.3563 24.9049 61.765 24.6111 62.0546 24.2181C62.3442 23.8251 62.5 23.3529 62.5 22.8685C62.5 22.384 62.3442 21.9119 62.0546 21.5189C61.765 21.1259 61.3563 20.832 60.8865 20.6789V20.6645ZM45.9863 39.0088C45.9869 41.1979 45.457 43.3559 44.44 45.3059C43.423 47.2559 41.9479 48.9422 40.1357 50.2264C38.3235 51.5107 36.2259 52.3563 34.015 52.6939C31.804 53.0315 29.5428 52.8515 27.4168 52.1686C25.2907 51.4857 23.3605 50.3194 21.7844 48.7654C20.2083 47.2114 19.0313 45.314 18.35 43.2288C17.6687 41.1436 17.5024 38.9301 17.8649 36.7699C18.2273 34.6097 19.1081 32.5643 20.4351 30.8016L31.0861 34.2633C31.5703 34.4212 32.0939 34.4212 32.5782 34.2633L43.2292 30.8016C45.0214 33.1786 45.9877 36.055 45.9863 39.0088ZM31.8321 29.6535L10.9842 22.8541L31.8321 16.0547L52.68 22.8541L31.8321 29.6535Z" fill="#333333"/>
<path opacity="0.2" d="M48.4472 10.2313L76.7556 19.4625L105.064 10.2313L76.7556 1L48.4472 10.2313Z" fill="#333333"/>
<path d="M48.6135 10.4333L76.9218 1.20202C77.4061 1.04409 77.9297 1.04409 78.4139 1.20202L106.722 10.4333C107.15 10.5746 107.528 10.8332 107.81 11.1784C108.093 11.5236 108.268 11.9408 108.315 12.3805C108.328 12.4606 108.335 12.5416 108.335 12.6228V35.7009C108.335 36.313 108.087 36.9 107.644 37.3328C107.202 37.7656 106.602 38.0088 105.976 38.0088C105.351 38.0088 104.751 37.7656 104.308 37.3328C103.866 36.9 103.617 36.313 103.617 35.7009V15.8249L93.7122 19.053C96.3438 23.2122 97.1807 28.2232 96.039 32.9855C94.8973 37.7479 91.8704 41.8723 87.623 44.4533C92.9308 46.49 97.5191 50.1738 100.875 55.2106C101.049 55.4644 101.171 55.7495 101.231 56.0495C101.292 56.3495 101.292 56.6583 101.229 56.9581C101.167 57.2578 101.045 57.5425 100.869 57.7955C100.693 58.0485 100.468 58.2648 100.206 58.4319C99.9445 58.599 99.6513 58.7135 99.3438 58.7687C99.0363 58.824 98.7206 58.8189 98.4152 58.7538C98.1097 58.6887 97.8205 58.5648 97.5645 58.3893C97.3084 58.2139 97.0905 57.9904 96.9234 57.7319C92.4796 51.0623 85.4615 47.24 77.6679 47.24C69.8742 47.24 69.3643 48.5 63.5137 52.5C63.5137 52.5 62.8935 51.9074 62.5 51.5C62.0877 51.0731 62.5 51.5 62 51C61.5 50.5 61 50 61 50C63 48 63.5 47.7687 67.7128 44.4533C63.4694 41.8725 60.4454 37.7507 59.3039 32.9918C58.1624 28.2329 58.9966 23.2254 61.6235 19.0674L48.6135 14.8268C48.1437 14.6737 47.735 14.3798 47.4454 13.9868C47.1558 13.5939 47 13.1217 47 12.6372C47 12.1528 47.1558 11.6806 47.4454 11.2876C47.735 10.8947 48.1437 10.6008 48.6135 10.4477V10.4333ZM63.5137 28.7775C63.5131 30.9666 64.043 33.1247 65.06 35.0747C66.077 37.0246 67.5521 38.7109 69.3643 39.9952C71.1765 41.2794 73.2741 42.125 75.485 42.4627C77.696 42.8003 79.9572 42.6202 82.0832 41.9373C84.2093 41.2544 86.1395 40.0881 87.7156 38.5341C89.2917 36.9801 90.4687 35.0827 91.15 32.9975C91.8313 30.9123 91.9976 28.6988 91.6351 26.5386C91.2727 24.3784 90.3919 22.333 89.0649 20.5703L78.4139 24.0321C77.9297 24.19 77.4061 24.19 76.9218 24.0321L66.2708 20.5703C64.4786 22.9474 63.5123 25.8238 63.5137 28.7775ZM77.6679 19.4222L98.5158 12.6228L77.6679 5.82342L56.82 12.6228L77.6679 19.4222Z" fill="#333333"/>
<path opacity="0.2" d="M87.9803 64.5566L59.6697 73.8018L31.3592 64.5566L59.6697 55.3115L87.9803 64.5566Z" fill="#333333"/>
<path d="M88.7264 62.3638L60.4158 53.1186C59.9315 52.9605 59.4079 52.9605 58.9236 53.1186L30.6131 62.3638C30.1849 62.5053 29.8072 62.7643 29.5249 63.11C29.2426 63.4557 29.0676 63.8736 29.0206 64.3139C29.0068 64.3941 28.9999 64.4753 29 64.5566V87.6695C29 88.2824 29.2486 88.8703 29.691 89.3038C30.1334 89.7372 30.7335 89.9807 31.3592 89.9807C31.9849 89.9807 32.585 89.7372 33.0274 89.3038C33.4699 88.8703 33.7184 88.2824 33.7184 87.6695V67.7635L43.6242 70.9964C40.9923 75.1619 40.1554 80.1804 41.2972 84.9499C42.439 89.7195 45.4661 93.8501 49.7139 96.435C44.4056 98.4747 39.817 102.164 36.461 107.208C36.2865 107.463 36.1652 107.748 36.1044 108.049C36.0435 108.349 36.0442 108.658 36.1064 108.959C36.1686 109.259 36.2911 109.544 36.4667 109.797C36.6424 110.051 36.8677 110.267 37.1296 110.435C37.3914 110.602 37.6846 110.717 37.9922 110.772C38.2997 110.827 38.6153 110.822 38.9208 110.757C39.2263 110.692 39.5155 110.568 39.7716 110.392C40.0277 110.216 40.2456 109.992 40.4127 109.734C44.8568 103.054 51.8755 99.2259 59.6697 99.2259C67.464 99.2259 74.4826 103.054 78.9268 109.734C79.2728 110.237 79.8073 110.588 80.4148 110.708C81.0223 110.829 81.6539 110.711 82.173 110.379C82.6922 110.047 83.0573 109.529 83.1893 108.936C83.3213 108.342 83.2096 107.722 82.8785 107.208C79.5225 102.164 74.9161 98.4747 69.6256 96.435C73.8693 93.8503 76.8936 89.7223 78.0351 84.9562C79.1767 80.1902 78.3425 75.1752 75.7153 71.0109L88.7264 66.7639C89.1962 66.6105 89.6049 66.3162 89.8945 65.9227C90.1841 65.5291 90.34 65.0562 90.34 64.571C90.34 64.0859 90.1841 63.613 89.8945 63.2194C89.6049 62.8258 89.1962 62.5315 88.7264 62.3782V62.3638ZM73.825 80.7356C73.8256 82.928 73.2957 85.0893 72.2786 87.0422C71.2615 88.9951 69.7863 90.684 67.974 91.9701C66.1616 93.2563 64.0639 94.1032 61.8528 94.4413C59.6417 94.7795 57.3802 94.5992 55.254 93.9152C53.1278 93.2313 51.1974 92.0633 49.6212 90.5069C48.045 88.9506 46.868 87.0503 46.1866 84.962C45.5052 82.8736 45.3389 80.6568 45.7014 78.4933C46.0639 76.3299 46.9448 74.2814 48.2718 72.5161L58.9236 75.983C59.4079 76.1412 59.9315 76.1412 60.4158 75.983L71.0677 72.5161C72.86 74.8967 73.8264 77.7774 73.825 80.7356ZM59.6697 71.3662L38.8202 64.5566L59.6697 57.747L80.5193 64.5566L59.6697 71.3662Z" fill="#333333"/>
</svg>
