<svg width="65" height="65" viewBox="0 0 56 56" fill="none" xmlns="http://www.w3.org/2000/svg">
<path d="M5 9V12.9H47.3077V44.1H20.3846V48H55V44.1H51.1538V9H5ZM12.6962 14.85C10.6579 14.8572 8.705 15.6812 7.26334 17.1423C5.82168 18.6034 5.00811 20.5832 5 22.65C5 26.9381 8.46923 30.45 12.6962 30.45C14.7334 30.4418 16.6849 29.6172 18.1251 28.1561C19.5653 26.695 20.3775 24.7158 20.3846 22.65C20.3846 18.3659 16.9192 14.85 12.6962 14.85ZM24.2308 16.8V20.7H33.8462V16.8H24.2308ZM37.6923 16.8V20.7H43.4615V16.8H37.6923ZM12.6962 18.75C14.8385 18.75 16.5385 20.4719 16.5385 22.65C16.5385 24.834 14.8404 26.55 12.6962 26.55C10.5423 26.55 8.84615 24.834 8.84615 22.65C8.84615 20.4719 10.5442 18.75 12.6962 18.75ZM24.2308 24.6V28.5H43.4615V24.6H24.2308ZM5 32.4V48H8.84615V36.3H14.6154V48H18.4615V37.5831L22.4308 39.7125C23.5558 40.317 24.9077 40.3151 26.0308 39.7125V39.7164L32.8192 36.0758L31.025 32.6243L24.2346 36.2649L18.2808 33.0786C17.4498 32.6335 16.5244 32.4005 15.5846 32.4H5Z" fill="#333333"/>
</svg>
