<svg width="1536" height="695" viewBox="0 0 1536 695" fill="none" xmlns="http://www.w3.org/2000/svg">
<ellipse cx="109.445" cy="61.9507" rx="143.461" ry="143.073" fill="#FFB133"/>
<path d="M642.468 830.189C642.468 942.273 551.084 1033.13 438.356 1033.13C325.629 1033.13 234.245 942.273 234.245 830.189C234.245 718.105 325.629 627.244 438.356 627.244C551.084 627.244 642.468 718.105 642.468 830.189Z" fill="#FFB133"/>
<ellipse cx="308.114" cy="12.5751" rx="49.7644" ry="49.3756" fill="#FFB133"/>
<ellipse cx="1135.45" cy="70.1152" rx="159.402" ry="158.235" fill="#FFB133"/>
<ellipse cx="1350.06" cy="7.52086" rx="55.2074" ry="54.4298" fill="#FFB133"/>
<path d="M1163.49 551.125C1163.49 569.162 1148.52 583.783 1130.05 583.783C1111.59 583.783 1096.62 569.162 1096.62 551.125C1096.62 533.089 1111.59 518.467 1130.05 518.467C1148.52 518.467 1163.49 533.089 1163.49 551.125Z" fill="#FFB133"/>
<ellipse cx="1339.17" cy="707.722" rx="220.83" ry="218.108" fill="#FFB133"/>
<ellipse cx="244.353" cy="165.756" rx="20.9944" ry="20.6056" fill="#FFB133"/>
<path d="M378.095 601.584C378.095 620.908 362.429 636.574 343.104 636.574C323.779 636.574 308.114 620.908 308.114 601.584C308.114 582.259 323.779 566.593 343.104 566.593C362.429 566.593 378.095 582.259 378.095 601.584Z" fill="#FFB133"/>
<path d="M431.747 601.584C431.747 613.608 421.999 623.356 409.975 623.356C397.951 623.356 388.203 613.608 388.203 601.584C388.203 589.559 397.951 579.812 409.975 579.812C421.999 579.812 431.747 589.559 431.747 601.584Z" fill="#FFB133"/>
<path d="M121.87 362.092C116.292 362.937 110.845 363.45 108.324 364.555C106.846 365.203 106.69 365.486 106.526 366.012C106.363 366.537 106.212 368.353 107.643 372.013L109.749 377.403L104.497 379.269C87.9361 385.155 76.9652 402.57 76.7356 417.915C76.3333 444.673 99.8246 468.125 112.208 490.491C116.153 497.617 114.947 506.004 111.945 514.313C108.943 522.619 103.966 531.546 98.3786 541.256C87.203 560.675 73.5772 583.152 67.9987 606.138C64.1412 622.031 69.9453 632.516 79.039 639.958C88.1333 647.4 101.022 650.611 108.045 649.616C119.181 648.04 126.817 640.439 131.119 631.142C135.42 621.846 135.672 611.052 132.951 605.347C131.124 601.514 127.411 598.183 123.166 596.228C118.92 594.272 114.264 593.844 111.344 594.721C101.937 597.546 98.9169 604.433 98.3706 611.846C98.137 615.01 98.5914 618.056 99.3014 620.575C100.972 617.578 102.863 614.534 104.946 611.883C106.963 609.32 109.018 607 112.211 605.654C113.807 604.982 115.871 604.636 117.916 605.226C119.961 605.816 121.671 607.269 122.826 608.903C124.872 611.8 125.445 615.047 125.459 618.536C125.473 622.026 124.753 625.793 122.96 629.345C119.375 636.448 110.601 641.789 98.8712 639.336C88.6785 637.204 81.0666 630.432 78.3209 621.42C75.5747 612.408 77.5023 601.828 83.6168 591.768C96.8315 570.023 119.593 557.003 137.774 542.699C146.865 535.546 154.808 528.151 160.166 519.685C165.524 511.218 168.474 501.777 167.694 489.376C166.901 476.787 158.541 464.726 146.418 453.926C134.294 443.125 118.762 433.846 105.334 426.613L105.329 426.611C103.491 425.618 102.103 423.582 101.638 421.786C101.176 419.99 101.322 418.452 101.607 417.093C102.176 414.376 103.378 412.147 105.005 410.167C106.633 408.185 108.752 405.903 112.724 406.142C114.709 406.261 116.823 407.496 118.028 409.059C119.173 410.543 119.74 412.158 120.111 413.894C120.131 413.867 120.406 414.203 121.601 414.705C123.334 415.434 126.387 416.084 130.127 416.315C137.605 416.773 147.854 415.707 157.844 413.094C168.794 410.23 180.031 413.078 189.34 416.041C191.294 416.663 192.68 417.152 194.441 417.758C194.395 417.571 194.296 417.39 194.256 417.203C193.02 411.46 193.886 405.86 195.031 401.064C195.378 399.609 195.764 398.39 196.144 397.088C188.651 399.613 179.918 400.893 171.318 399.896C160.362 398.627 149.315 392.907 144.008 381.086C137.771 379.6 133.251 376.134 130.021 372.416C126.899 368.822 124.621 365.241 121.87 362.092ZM128.496 385.002C133.095 385.002 136.823 388.816 136.823 393.523C136.823 398.229 133.095 402.045 128.496 402.045C123.898 402.045 120.17 398.229 120.17 393.523C120.17 388.816 123.897 385.002 128.496 385.002ZM101.617 437.458C127.933 461.783 141.97 482.179 144.333 501.188C145.515 510.694 143.468 519.745 138.679 527.597C133.888 535.448 126.542 542.166 117.127 548.184L111.718 538.845C120.234 533.403 126.297 527.63 129.918 521.698C133.537 515.765 134.901 509.739 134.014 502.605C132.24 488.339 120.226 469.221 94.7438 445.666L101.617 437.458ZM42.9625 449.465C49.6459 470.995 65.7046 489.65 85.1286 506.401C86.1277 502.743 87.3557 499.105 89.1815 495.711C91.0836 492.177 93.7986 488.921 97.2744 486.576C91.4137 477.998 84.1238 468.469 78.0717 457.823C77.5221 457.82 76.9727 457.802 76.424 457.768C71.6647 457.468 65.7051 456.364 59.5617 454.823C53.7536 453.366 47.9196 451.504 42.9625 449.465Z" fill="white" fill-opacity="0.4"/>
<path d="M1241.99 243.902C1237.27 244.616 1232.65 245.05 1230.51 245.985C1229.26 246.533 1229.13 246.773 1228.99 247.218C1228.85 247.661 1228.72 249.198 1229.93 252.295L1231.72 256.854L1227.27 258.433C1213.23 263.411 1203.93 278.143 1203.73 291.125C1203.39 313.761 1223.31 333.6 1233.8 352.52C1237.15 358.548 1236.13 365.643 1233.58 372.672C1231.04 379.699 1226.82 387.251 1222.08 395.465C1212.61 411.892 1201.06 430.906 1196.33 450.351C1193.06 463.796 1197.98 472.666 1205.69 478.961C1213.4 485.257 1224.32 487.973 1230.27 487.132C1239.72 485.798 1246.19 479.368 1249.83 471.504C1253.48 463.64 1253.69 454.508 1251.39 449.682C1249.84 446.44 1246.69 443.622 1243.09 441.968C1239.49 440.313 1235.55 439.952 1233.07 440.693C1225.1 443.083 1222.54 448.909 1222.07 455.18C1221.88 457.856 1222.26 460.433 1222.86 462.564C1224.28 460.029 1225.88 457.454 1227.65 455.211C1229.36 453.043 1231.1 451.08 1233.81 449.942C1235.16 449.373 1236.91 449.081 1238.64 449.58C1240.38 450.079 1241.83 451.308 1242.8 452.69C1244.54 455.141 1245.02 457.888 1245.04 460.839C1245.05 463.791 1244.44 466.978 1242.92 469.983C1239.88 475.992 1232.44 480.51 1222.5 478.435C1213.86 476.632 1207.4 470.903 1205.08 463.279C1202.75 455.655 1204.38 446.705 1209.57 438.195C1220.77 419.8 1240.06 408.786 1255.48 396.685C1263.18 390.634 1269.92 384.378 1274.46 377.217C1279 370.054 1281.5 362.068 1280.84 351.577C1280.17 340.927 1273.08 330.724 1262.8 321.588C1252.53 312.451 1239.36 304.602 1227.98 298.483L1227.97 298.481C1226.41 297.641 1225.24 295.919 1224.84 294.4C1224.45 292.881 1224.58 291.579 1224.82 290.43C1225.3 288.131 1226.32 286.246 1227.7 284.57C1229.08 282.894 1230.87 280.963 1234.24 281.165C1235.92 281.266 1237.72 282.311 1238.74 283.633C1239.71 284.888 1240.19 286.254 1240.5 287.723C1240.52 287.7 1240.75 287.985 1241.77 288.409C1243.24 289.026 1245.82 289.576 1248.99 289.771C1255.33 290.158 1264.02 289.257 1272.49 287.047C1281.77 284.624 1291.3 287.033 1299.19 289.54C1300.85 290.066 1302.02 290.479 1303.51 290.992C1303.47 290.834 1303.39 290.68 1303.36 290.522C1302.31 285.664 1303.04 280.927 1304.01 276.87C1304.31 275.639 1304.64 274.608 1304.96 273.506C1298.61 275.642 1291.2 276.725 1283.91 275.882C1274.62 274.808 1265.26 269.97 1260.76 259.969C1255.47 258.713 1251.64 255.78 1248.9 252.635C1246.26 249.595 1244.33 246.566 1241.99 243.902ZM1247.61 263.282C1251.51 263.282 1254.67 266.509 1254.67 270.491C1254.67 274.472 1251.51 277.699 1247.61 277.699C1243.71 277.699 1240.55 274.472 1240.55 270.491C1240.55 266.509 1243.71 263.282 1247.61 263.282ZM1224.83 307.657C1247.13 328.235 1259.03 345.489 1261.04 361.57C1262.04 369.611 1260.3 377.267 1256.24 383.91C1252.18 390.552 1245.96 396.234 1237.97 401.326L1233.39 393.425C1240.61 388.821 1245.75 383.938 1248.82 378.92C1251.88 373.901 1253.04 368.803 1252.29 362.768C1250.79 350.7 1240.6 334.527 1219 314.6L1224.83 307.657ZM1175.1 317.815C1180.77 336.028 1194.38 351.809 1210.85 365.98C1211.7 362.885 1212.74 359.807 1214.28 356.936C1215.9 353.946 1218.2 351.192 1221.14 349.209C1216.18 341.952 1210 333.891 1204.87 324.885C1204.4 324.882 1203.93 324.867 1203.47 324.839C1199.43 324.584 1194.38 323.651 1189.17 322.347C1184.25 321.115 1179.31 319.54 1175.1 317.815Z" fill="white" fill-opacity="0.4"/>
<path d="M341.175 70.504C344.884 71.0585 348.506 71.3955 350.182 72.1211C351.166 72.5468 351.269 72.733 351.378 73.0785C351.487 73.4227 351.587 74.6155 350.635 77.0196L349.235 80.5591L352.728 81.7849C363.74 85.6503 371.035 97.0876 371.188 107.166C371.455 124.739 355.834 140.141 347.6 154.831C344.976 159.511 345.778 165.019 347.775 170.476C349.771 175.931 353.08 181.794 356.796 188.171C364.227 200.925 373.288 215.686 376.998 230.782C379.563 241.22 375.703 248.107 369.656 252.994C363.609 257.882 355.038 259.991 350.368 259.337C342.963 258.302 337.885 253.31 335.025 247.204C332.164 241.099 331.997 234.01 333.806 230.263C335.021 227.746 337.49 225.558 340.313 224.274C343.136 222.989 346.233 222.709 348.174 223.285C354.43 225.14 356.438 229.663 356.801 234.532C356.957 236.609 356.654 238.61 356.182 240.264C355.071 238.296 353.814 236.297 352.428 234.556C351.087 232.872 349.721 231.348 347.598 230.465C346.537 230.023 345.164 229.796 343.804 230.184C342.444 230.571 341.307 231.526 340.539 232.598C339.178 234.501 338.798 236.634 338.788 238.925C338.779 241.217 339.258 243.691 340.45 246.024C342.834 250.689 348.668 254.196 356.468 252.586C363.246 251.185 368.308 246.738 370.134 240.819C371.96 234.9 370.678 227.952 366.612 221.345C357.825 207.064 342.689 198.513 330.599 189.118C324.554 184.421 319.272 179.564 315.709 174.004C312.146 168.443 310.184 162.243 310.703 154.099C311.23 145.83 316.789 137.909 324.851 130.816C332.913 123.723 343.242 117.629 352.17 112.879L352.174 112.877C353.396 112.225 354.32 110.888 354.628 109.708C354.936 108.529 354.839 107.518 354.649 106.626C354.271 104.842 353.471 103.378 352.389 102.077C351.307 100.776 349.898 99.2768 347.257 99.4335C345.937 99.5117 344.531 100.323 343.729 101.349C342.968 102.324 342.591 103.385 342.345 104.525C342.331 104.507 342.149 104.728 341.353 105.058C340.201 105.536 338.171 105.963 335.684 106.115C330.711 106.416 323.896 105.716 317.253 104C309.971 102.119 302.499 103.989 296.309 105.935C295.009 106.344 294.088 106.664 292.917 107.063C292.948 106.94 293.013 106.821 293.04 106.698C293.862 102.926 293.286 99.2485 292.525 96.0991C292.294 95.143 292.037 94.3428 291.785 93.4875C296.767 95.1457 302.574 95.9866 308.293 95.332C315.578 94.4983 322.925 90.7419 326.454 82.978C330.601 82.0023 333.606 79.7258 335.755 77.2841C337.831 74.9238 339.345 72.5719 341.175 70.504ZM336.769 85.5498C333.711 85.5498 331.232 88.0549 331.232 91.1464C331.232 94.2371 333.711 96.743 336.768 96.743C339.826 96.743 342.305 94.2371 342.305 91.1464C342.305 88.0549 339.827 85.5498 336.769 85.5498ZM354.642 120.001C337.143 135.977 327.809 149.372 326.237 161.856C325.452 168.099 326.812 174.043 329.997 179.2C333.183 184.357 338.068 188.768 344.328 192.721L347.926 186.587C342.263 183.013 338.231 179.222 335.823 175.326C333.416 171.43 332.509 167.472 333.099 162.787C334.279 153.417 342.268 140.862 359.213 125.391L354.642 120.001ZM393.646 127.887C389.202 142.027 378.523 154.278 365.607 165.28C364.942 162.877 364.126 160.488 362.912 158.259C361.647 155.938 359.841 153.799 357.53 152.26C361.427 146.626 366.275 140.368 370.299 133.376C370.665 133.374 371.03 133.362 371.395 133.34C374.56 133.142 378.523 132.418 382.608 131.405C386.47 130.449 390.35 129.226 393.646 127.887Z" fill="white" fill-opacity="0.4"/>
<path d="M1392.5 87.6105C1399.83 88.7058 1406.99 89.3716 1410.31 90.8049C1412.25 91.6456 1412.46 92.0136 1412.67 92.696C1412.89 93.376 1413.08 95.732 1411.2 100.481L1408.43 107.472L1415.34 109.894C1437.11 117.529 1451.54 140.121 1451.84 160.029C1452.37 194.742 1421.48 225.166 1405.2 254.182C1400.01 263.426 1401.6 274.306 1405.55 285.085C1409.49 295.861 1416.04 307.443 1423.38 320.039C1438.08 345.231 1455.99 374.391 1463.32 404.21C1468.4 424.828 1460.76 438.431 1448.81 448.085C1436.85 457.74 1419.91 461.905 1410.67 460.615C1396.03 458.57 1385.99 448.709 1380.34 436.648C1374.68 424.589 1374.35 410.585 1377.93 403.184C1380.33 398.212 1385.21 393.891 1390.79 391.354C1396.38 388.816 1402.5 388.262 1406.34 389.399C1418.7 393.063 1422.67 401.999 1423.39 411.616C1423.7 415.72 1423.1 419.671 1422.17 422.939C1419.97 419.052 1417.49 415.103 1414.75 411.663C1412.1 408.338 1409.39 405.328 1405.2 403.583C1403.1 402.71 1400.39 402.262 1397.7 403.027C1395.01 403.793 1392.76 405.678 1391.24 407.797C1388.55 411.555 1387.8 415.768 1387.78 420.294C1387.76 424.821 1388.71 429.708 1391.06 434.316C1395.78 443.532 1407.31 450.46 1422.74 447.278C1436.14 444.512 1446.14 435.726 1449.75 424.036C1453.36 412.344 1450.83 398.619 1442.79 385.568C1425.42 357.359 1395.49 340.467 1371.59 321.91C1359.64 312.631 1349.19 303.037 1342.15 292.055C1335.11 281.071 1331.23 268.824 1332.25 252.736C1333.29 236.403 1344.29 220.757 1360.22 206.746C1376.16 192.734 1396.58 180.696 1414.24 171.313L1414.25 171.31C1416.66 170.022 1418.49 167.381 1419.1 165.051C1419.71 162.721 1419.51 160.726 1419.14 158.963C1418.39 155.438 1416.81 152.547 1414.67 149.977C1412.53 147.407 1409.74 144.446 1404.52 144.755C1401.91 144.91 1399.13 146.512 1397.55 148.54C1396.04 150.465 1395.3 152.56 1394.81 154.812C1394.78 154.777 1394.42 155.214 1392.85 155.865C1390.57 156.81 1386.56 157.653 1381.64 157.953C1371.81 158.547 1358.34 157.165 1345.2 153.775C1330.81 150.06 1316.03 153.754 1303.79 157.598C1301.22 158.405 1299.4 159.039 1297.09 159.825C1297.15 159.582 1297.28 159.347 1297.33 159.105C1298.96 151.655 1297.82 144.39 1296.31 138.169C1295.86 136.28 1295.35 134.699 1294.85 133.01C1304.7 136.286 1316.18 137.947 1327.49 136.654C1341.89 135.007 1356.42 127.587 1363.39 112.251C1371.59 110.323 1377.53 105.826 1381.78 101.003C1385.89 96.3411 1388.88 91.6953 1392.5 87.6105ZM1383.79 117.331C1377.74 117.331 1372.84 122.279 1372.84 128.386C1372.84 134.491 1377.74 139.441 1383.79 139.441C1389.83 139.441 1394.73 134.491 1394.73 128.386C1394.73 122.279 1389.83 117.331 1383.79 117.331ZM1419.12 185.381C1384.53 216.939 1366.07 243.399 1362.97 268.059C1361.41 280.391 1364.1 292.133 1370.4 302.319C1376.7 312.505 1386.36 321.219 1398.73 329.027L1405.85 316.911C1394.65 309.851 1386.68 302.362 1381.92 294.667C1377.16 286.97 1375.37 279.152 1376.53 269.897C1378.86 251.39 1394.66 226.588 1428.16 196.03L1419.12 185.381ZM1496.24 200.959C1487.45 228.89 1466.34 253.09 1440.8 274.822C1439.49 270.076 1437.87 265.357 1435.47 260.954C1432.97 256.368 1429.4 252.145 1424.83 249.103C1432.54 237.974 1442.12 225.613 1450.08 211.802C1450.8 211.798 1451.53 211.774 1452.25 211.731C1458.5 211.341 1466.34 209.909 1474.42 207.909C1482.05 206.02 1489.72 203.605 1496.24 200.959Z" fill="white" fill-opacity="0.4"/>
</svg>
