<svg width="360" height="800" viewBox="0 0 360 800" fill="none" xmlns="http://www.w3.org/2000/svg">
<rect width="360" height="800" fill="url(#paint0_linear_224_148)"/>
<ellipse cx="37.5" cy="38.5" rx="26.5" ry="25.5" fill="#FFB133" fill-opacity="0.72"/>
<ellipse cx="355.5" cy="297" rx="19.5" ry="19" fill="#FFB133" fill-opacity="0.72"/>
<circle cx="329.5" cy="315.5" r="6.5" fill="#FFB133" fill-opacity="0.72"/>
<ellipse cx="11.5" cy="2" rx="11.5" ry="11" fill="#FFB133" fill-opacity="0.72"/>
<circle cx="60.5" cy="300.5" r="40.5" fill="#FFB133"/>
<circle cx="277.5" cy="86.5" r="124.5" fill="#FFB133"/>
<path d="M31 246C31 257.046 22.0457 266 11 266C-0.0456953 266 -9 257.046 -9 246C-9 234.954 -0.0456953 226 11 226C22.0457 226 31 234.954 31 246Z" fill="#FFB133"/>
<circle cx="334.5" cy="768.5" r="40.5" fill="white" fill-opacity="0.24"/>
<circle cx="39.5" cy="572.5" r="73.5" fill="white" fill-opacity="0.15"/>
<path d="M324 708C324 719.046 315.046 728 304 728C292.954 728 284 719.046 284 708C284 696.954 292.954 688 304 688C315.046 688 324 696.954 324 708Z" fill="white" fill-opacity="0.22"/>
<path d="M293.078 469C296.502 469.519 299.846 469.835 301.393 470.515C302.301 470.914 302.396 471.088 302.497 471.412C302.597 471.734 302.69 472.851 301.811 475.104L300.518 478.419L303.743 479.568C313.908 483.188 320.643 493.902 320.784 503.343C321.031 519.806 306.61 534.234 299.009 547.994C296.587 552.378 297.327 557.537 299.17 562.649C301.013 567.76 304.068 573.252 307.498 579.226C314.358 591.173 322.723 605.001 326.147 619.142C328.515 628.92 324.952 635.371 319.37 639.949C313.787 644.528 305.875 646.504 301.564 645.891C294.728 644.922 290.041 640.245 287.4 634.526C284.76 628.807 284.605 622.166 286.275 618.656C287.397 616.298 289.676 614.249 292.282 613.045C294.888 611.842 297.747 611.579 299.539 612.119C305.314 613.856 307.168 618.094 307.503 622.654C307.646 624.601 307.367 626.475 306.932 628.024C305.906 626.181 304.745 624.308 303.466 622.677C302.228 621.1 300.967 619.673 299.007 618.845C298.028 618.431 296.761 618.219 295.505 618.581C294.25 618.945 293.2 619.838 292.491 620.843C291.235 622.626 290.883 624.624 290.875 626.77C290.866 628.917 291.308 631.234 292.408 633.42C294.609 637.79 299.995 641.076 307.196 639.567C313.453 638.255 318.125 634.089 319.811 628.544C321.496 623 320.313 616.491 316.56 610.301C308.448 596.924 294.476 588.913 283.315 580.113C277.734 575.713 272.858 571.163 269.569 565.954C266.281 560.745 264.47 554.937 264.949 547.308C265.435 539.563 270.567 532.143 278.009 525.498C285.451 518.853 294.986 513.144 303.228 508.695L303.232 508.693C304.36 508.082 305.212 506.83 305.497 505.725C305.781 504.62 305.691 503.674 305.516 502.838C305.167 501.166 304.429 499.795 303.43 498.576C302.431 497.357 301.13 495.953 298.692 496.1C297.474 496.173 296.176 496.933 295.436 497.895C294.733 498.808 294.386 499.801 294.158 500.869C294.145 500.853 293.977 501.06 293.243 501.368C292.179 501.817 290.305 502.217 288.009 502.359C283.419 502.64 277.127 501.985 270.995 500.377C264.273 498.616 257.375 500.367 251.661 502.191C250.461 502.573 249.611 502.874 248.53 503.247C248.558 503.131 248.618 503.02 248.643 502.905C249.402 499.372 248.87 495.927 248.168 492.976C247.955 492.081 247.718 491.331 247.484 490.53C252.084 492.083 257.444 492.871 262.724 492.258C269.449 491.477 276.231 487.958 279.488 480.685C283.317 479.771 286.091 477.639 288.074 475.351C289.991 473.14 291.389 470.937 293.078 469ZM289.011 483.094C286.187 483.094 283.899 485.441 283.899 488.337C283.899 491.232 286.187 493.58 289.01 493.58C291.833 493.58 294.122 491.232 294.122 488.337C294.122 485.441 291.833 483.094 289.011 483.094ZM305.51 515.366C289.356 530.332 280.739 542.88 279.289 554.575C278.563 560.423 279.819 565.991 282.76 570.822C285.7 575.652 290.21 579.785 295.989 583.488L299.31 577.742C294.082 574.394 290.36 570.843 288.138 567.193C285.916 563.543 285.078 559.836 285.623 555.447C286.712 546.67 294.087 534.908 309.729 520.416L305.51 515.366ZM341.516 522.754C337.413 536 327.555 547.476 315.632 557.782C315.018 555.532 314.265 553.293 313.144 551.206C311.976 549.031 310.31 547.028 308.176 545.585C311.774 540.308 316.248 534.445 319.964 527.896C320.301 527.894 320.638 527.883 320.975 527.862C323.897 527.677 327.555 526.998 331.326 526.05C334.891 525.154 338.473 524.008 341.516 522.754Z" fill="white" fill-opacity="0.4"/>
<path d="M93.0588 87C90.5098 87.388 88.0205 87.6239 86.8686 88.1316C86.193 88.4295 86.122 88.5598 86.0469 88.8016C85.9724 89.0425 85.9035 89.8771 86.5573 91.5595L87.5198 94.0363L85.1196 94.8941C77.5518 97.599 72.5384 105.603 72.4335 112.655C72.2496 124.953 82.9846 135.731 88.6435 146.01C90.4464 149.285 89.8953 153.139 88.5233 156.958C87.1513 160.775 84.8773 164.878 82.3238 169.341C77.2168 178.265 70.9902 188.595 68.4409 199.159C66.6782 206.463 69.3305 211.282 73.4861 214.702C77.6419 218.123 83.5317 219.598 86.741 219.141C91.83 218.417 95.3195 214.923 97.2852 210.651C99.2508 206.378 99.366 201.418 98.1227 198.796C97.2878 197.034 95.5909 195.503 93.6509 194.605C91.7108 193.706 89.583 193.509 88.2488 193.912C83.9497 195.21 82.5698 198.376 82.3201 201.783C82.2134 203.236 82.421 204.636 82.7455 205.794C83.509 204.417 84.3729 203.018 85.3251 201.799C86.2467 200.621 87.1859 199.555 88.6448 198.937C89.374 198.628 90.3172 198.469 91.2519 198.74C92.1864 199.011 92.9679 199.679 93.4955 200.43C94.4308 201.761 94.6923 203.254 94.6989 204.857C94.7053 206.461 94.3761 208.192 93.5571 209.824C91.9185 213.089 87.909 215.544 82.5489 214.416C77.8911 213.437 74.4126 210.324 73.1579 206.183C71.903 202.041 72.7838 197.178 75.578 192.555C81.6168 182.562 92.0181 176.578 100.327 170.003C104.481 166.716 108.111 163.317 110.559 159.427C113.007 155.536 114.356 151.197 113.999 145.498C113.637 139.712 109.817 134.169 104.276 129.205C98.7362 124.241 91.6384 119.977 85.5024 116.653L85.4998 116.652C84.6601 116.195 84.0255 115.26 83.8134 114.434C83.602 113.609 83.6689 112.902 83.7991 112.277C84.0591 111.029 84.6083 110.004 85.3521 109.094C86.0958 108.184 87.0641 107.135 88.8791 107.244C89.7864 107.299 90.7523 107.867 91.3032 108.585C91.8263 109.267 92.0852 110.009 92.2548 110.807C92.2641 110.795 92.3896 110.949 92.9359 111.18C93.728 111.515 95.123 111.814 96.8318 111.92C100.249 112.13 104.933 111.64 109.498 110.44C114.502 109.123 119.637 110.432 123.891 111.794C124.784 112.08 125.417 112.304 126.222 112.583C126.201 112.497 126.156 112.414 126.137 112.328C125.573 109.688 125.968 107.115 126.491 104.911C126.65 104.242 126.826 103.682 127 103.083C123.576 104.244 119.585 104.832 115.655 104.374C110.649 103.791 105.6 101.162 103.175 95.7291C100.325 95.0463 98.2598 93.4532 96.7835 91.7446C95.3568 90.0929 94.3158 88.4471 93.0588 87ZM96.0865 97.5287C98.1882 97.5287 99.8918 99.2817 99.8918 101.445C99.8918 103.608 98.1882 105.361 96.0868 105.361C93.9853 105.361 92.2818 103.608 92.2818 101.445C92.2818 99.2817 93.9851 97.5287 96.0865 97.5287ZM83.8039 121.637C95.8294 132.816 102.244 142.19 103.324 150.926C103.864 155.295 102.929 159.454 100.74 163.063C98.5507 166.671 95.1938 169.759 90.8915 172.525L88.4194 168.232C92.3111 165.731 95.082 163.078 96.7364 160.352C98.3903 157.625 99.0138 154.856 98.6083 151.577C97.7977 145.021 92.3077 136.235 80.6628 125.409L83.8039 121.637ZM57 127.155C60.0541 137.05 67.3926 145.623 76.2689 153.322C76.7254 151.641 77.2866 149.969 78.1209 148.409C78.9901 146.784 80.2308 145.288 81.8192 144.211C79.141 140.268 75.8097 135.889 73.0441 130.996C72.7929 130.995 72.5418 130.986 72.2911 130.971C70.1162 130.833 67.3928 130.326 64.5854 129.617C61.9313 128.948 59.2652 128.092 57 127.155Z" fill="white" fill-opacity="0.4"/>
<path d="M41.9989 668C40.4438 668.237 38.9251 668.381 38.2223 668.69C37.8102 668.872 37.7668 668.952 37.7211 669.099C37.6756 669.246 37.6335 669.755 38.0325 670.782L38.6197 672.293L37.1553 672.816C32.5383 674.466 29.4797 679.349 29.4157 683.652C29.3035 691.154 35.8528 697.73 39.3052 704.001C40.4051 705.999 40.0689 708.35 39.2318 710.68C38.3948 713.009 37.0075 715.512 35.4497 718.235C32.334 723.679 28.5352 729.982 26.9799 736.426C25.9045 740.883 27.5226 743.823 30.0579 745.909C32.5933 747.996 36.1866 748.896 38.1445 748.617C41.2492 748.175 43.3781 746.044 44.5774 743.437C45.7766 740.831 45.8468 737.804 45.0883 736.205C44.579 735.13 43.5437 734.196 42.3601 733.648C41.1765 733.099 39.8783 732.98 39.0644 733.225C36.4416 734.017 35.5997 735.949 35.4474 738.027C35.3823 738.914 35.509 739.768 35.7069 740.474C36.1727 739.634 36.6998 738.781 37.2807 738.037C37.8429 737.319 38.4159 736.668 39.306 736.291C39.7509 736.102 40.3263 736.005 40.8965 736.171C41.4667 736.336 41.9434 736.744 42.2653 737.202C42.8359 738.014 42.9955 738.925 42.9995 739.903C43.0034 740.881 42.8026 741.937 42.3029 742.933C41.3032 744.925 38.8571 746.422 35.587 745.735C32.7453 745.137 30.6232 743.238 29.8577 740.711C29.0921 738.184 29.6295 735.218 31.3341 732.397C35.0183 726.301 41.364 722.65 46.4329 718.639C48.9674 716.634 51.1819 714.56 52.6756 712.186C54.1693 709.812 54.9918 707.165 54.7742 703.688C54.5534 700.158 52.2226 696.777 48.8426 693.749C45.4626 690.72 41.1324 688.119 37.3889 686.091L37.3873 686.09C36.875 685.812 36.4878 685.241 36.3584 684.737C36.2295 684.234 36.2702 683.802 36.3497 683.421C36.5083 682.66 36.8434 682.035 37.2971 681.479C37.7509 680.924 38.3416 680.284 39.449 680.351C40.0025 680.384 40.5917 680.73 40.9278 681.169C41.247 681.585 41.4049 682.037 41.5084 682.524C41.514 682.517 41.5906 682.611 41.9239 682.752C42.4072 682.956 43.2582 683.138 44.3008 683.203C46.3857 683.331 49.2431 683.033 52.0282 682.3C55.0811 681.497 58.2137 682.296 60.8091 683.126C61.3539 683.301 61.7402 683.438 62.2312 683.608C62.2183 683.555 62.1909 683.504 62.1796 683.452C61.835 681.842 62.0765 680.272 62.3956 678.927C62.4923 678.519 62.6 678.177 62.7059 677.812C60.6169 678.52 58.1824 678.879 55.7846 678.6C52.7302 678.244 49.6503 676.64 48.1708 673.325C46.4321 672.909 45.172 671.937 44.2713 670.895C43.4009 669.887 42.7658 668.883 41.9989 668ZM43.8461 674.423C45.1283 674.423 46.1676 675.493 46.1676 676.813C46.1676 678.132 45.1283 679.202 43.8462 679.202C42.5642 679.202 41.5248 678.132 41.5248 676.813C41.5248 675.493 42.564 674.423 43.8461 674.423ZM36.3526 689.131C43.6892 695.952 47.6026 701.67 48.2614 707C48.5908 709.665 48.0204 712.203 46.685 714.405C45.3494 716.606 43.3014 718.49 40.6767 720.177L39.1685 717.559C41.5427 716.033 43.2332 714.414 44.2426 712.751C45.2516 711.087 45.632 709.398 45.3846 707.398C44.89 703.398 41.5406 698.037 34.4363 691.433L36.3526 689.131ZM20 692.498C21.8633 698.535 26.3403 703.765 31.7556 708.462C32.0342 707.436 32.3765 706.416 32.8855 705.465C33.4158 704.474 34.1728 703.561 35.1418 702.903C33.5079 700.498 31.4755 697.826 29.7882 694.841C29.635 694.841 29.4818 694.835 29.3288 694.826C28.002 694.742 26.3405 694.432 24.6278 694C23.0085 693.592 21.382 693.07 20 692.498Z" fill="white" fill-opacity="0.4"/>
<defs>
<linearGradient id="paint0_linear_224_148" x1="180" y1="0" x2="180" y2="800" gradientUnits="userSpaceOnUse">
<stop offset="0.375" stop-color="#FD9F09"/>
<stop offset="1" stop-color="#FDCF06"/>
</linearGradient>
</defs>
</svg>
