<svg width="1920" height="869" viewBox="0 0 1920 869" fill="none" xmlns="http://www.w3.org/2000/svg">
<ellipse cx="125.5" cy="-6" rx="184.5" ry="184" fill="#FFB133"/>
<path d="M811 982C811 1126.15 693.475 1243 548.5 1243C403.525 1243 286 1126.15 286 982C286 837.854 403.525 721 548.5 721C693.475 721 811 837.854 811 982Z" fill="#FFB133"/>
<ellipse cx="1445" cy="4.5" rx="205" ry="203.5" fill="#FFB133"/>
<path d="M1481.06 623.107C1481.06 646.303 1461.81 665.107 1438.06 665.107C1414.32 665.107 1395.06 646.303 1395.06 623.107C1395.06 599.911 1414.32 581.107 1438.06 581.107C1461.81 581.107 1481.06 599.911 1481.06 623.107Z" fill="#FFB133"/>
<ellipse cx="1707" cy="824.5" rx="284" ry="280.5" fill="#FFB133"/>
<ellipse cx="299" cy="127.5" rx="27" ry="26.5" fill="#FFB133"/>
<path d="M471 688C471 712.853 450.853 733 426 733C401.147 733 381 712.853 381 688C381 663.147 401.147 643 426 643C450.853 643 471 663.147 471 688Z" fill="#FFB133"/>
<path d="M540 688C540 703.464 527.464 716 512 716C496.536 716 484 703.464 484 688C484 672.536 496.536 660 512 660C527.464 660 540 672.536 540 688Z" fill="#FFB133"/>
<path d="M221.172 189C207.517 191.066 194.181 192.322 188.01 195.025C184.391 196.611 184.01 197.305 183.608 198.592C183.209 199.875 182.84 204.319 186.343 213.277L191.499 226.464L178.641 231.031C138.099 245.433 111.241 288.047 110.679 325.597C109.694 391.074 167.203 448.46 197.519 503.19C207.177 520.627 204.225 541.149 196.875 561.481C189.525 581.807 177.343 603.652 163.663 627.411C136.304 674.93 102.947 729.93 89.2906 786.176C79.8473 825.067 94.0561 850.724 116.318 868.934C138.582 887.145 170.134 895.003 187.327 892.568C214.589 888.711 233.283 870.111 243.814 847.362C254.344 824.615 254.961 798.201 248.3 784.241C243.828 774.863 234.737 766.712 224.344 761.926C213.951 757.141 202.552 756.094 195.404 758.24C172.373 765.151 164.981 782.006 163.643 800.145C163.072 807.886 164.184 815.339 165.922 821.503C170.013 814.171 174.641 806.722 179.742 800.235C184.678 793.963 189.71 788.285 197.526 784.993C201.432 783.348 206.485 782.502 211.492 783.945C216.499 785.39 220.685 788.945 223.512 792.942C228.522 800.031 229.923 807.978 229.959 816.514C229.993 825.054 228.229 834.271 223.841 842.963C215.063 860.346 193.584 873.413 164.869 867.412C139.916 862.195 121.282 845.623 114.56 823.572C107.837 801.519 112.556 775.63 127.525 751.013C159.876 697.805 215.597 665.944 260.107 630.941C282.362 613.439 301.808 595.342 314.924 574.627C328.04 553.909 335.263 530.808 333.352 500.463C331.413 469.656 310.947 440.143 281.267 413.716C251.587 387.286 213.563 364.58 180.691 346.882L180.677 346.876C176.179 344.446 172.78 339.464 171.643 335.071C170.511 330.676 170.869 326.911 171.567 323.586C172.959 316.938 175.902 311.484 179.886 306.637C183.87 301.789 189.058 296.204 198.781 296.788C203.641 297.079 208.816 300.102 211.767 303.926C214.569 307.557 215.956 311.509 216.865 315.757C216.915 315.691 217.587 316.515 220.514 317.742C224.757 319.526 232.23 321.116 241.385 321.681C259.692 322.802 284.784 320.195 309.24 313.801C336.047 306.793 363.554 313.761 386.344 321.012C391.128 322.534 394.521 323.729 398.832 325.212C398.719 324.755 398.478 324.312 398.379 323.854C395.353 309.801 397.473 296.098 400.275 284.364C401.125 280.802 402.07 277.82 403 274.634C384.657 280.812 363.279 283.945 342.225 281.506C315.404 278.4 288.359 264.404 275.367 235.477C260.1 231.841 249.035 223.359 241.126 214.262C233.483 205.468 227.906 196.705 221.172 189ZM237.392 245.059C248.651 245.059 257.777 254.392 257.777 265.911C257.777 277.426 248.651 286.763 237.393 286.763C226.136 286.763 217.009 277.426 217.009 265.911C217.009 254.392 226.134 245.059 237.392 245.059ZM171.592 373.418C236.015 432.942 270.378 482.851 276.163 529.366C279.056 552.626 274.047 574.774 262.321 593.988C250.593 613.2 232.61 629.638 209.562 644.365L196.318 621.511C217.167 608.194 232.011 594.069 240.874 579.554C249.734 565.036 253.074 550.289 250.902 532.833C246.559 497.924 217.148 451.143 154.765 393.503L171.592 373.418ZM28 402.801C44.3615 455.484 83.6744 501.132 131.226 542.123C133.672 533.171 136.678 524.268 141.148 515.964C145.804 507.314 152.451 499.348 160.96 493.611C146.613 472.619 128.766 449.303 113.95 423.252C112.605 423.245 111.26 423.2 109.917 423.118C98.2653 422.382 83.6759 419.682 68.6363 415.91C54.4176 412.346 40.1353 407.79 28 402.801Z" fill="white" fill-opacity="0.4"/>
<path d="M1582.03 228C1575.94 228.919 1570.01 229.477 1567.26 230.679C1565.65 231.384 1565.48 231.693 1565.3 232.265C1565.12 232.835 1564.96 234.811 1566.52 238.793L1568.81 244.657L1563.09 246.687C1545.03 253.09 1533.07 272.037 1532.82 288.731C1532.38 317.843 1557.99 343.357 1571.49 367.69C1575.79 375.442 1574.48 384.566 1571.21 393.606C1567.93 402.643 1562.51 412.355 1556.42 422.919C1544.23 444.045 1529.38 468.499 1523.29 493.506C1519.09 510.797 1525.42 522.204 1535.33 530.3C1545.25 538.397 1559.3 541.89 1566.95 540.808C1579.09 539.093 1587.42 530.823 1592.11 520.709C1596.8 510.596 1597.07 498.852 1594.11 492.646C1592.12 488.476 1588.07 484.852 1583.44 482.724C1578.81 480.597 1573.73 480.131 1570.55 481.086C1560.29 484.158 1557 491.652 1556.41 499.717C1556.15 503.158 1556.65 506.472 1557.42 509.212C1559.24 505.953 1561.3 502.641 1563.58 499.756C1565.77 496.968 1568.01 494.444 1571.5 492.98C1573.24 492.248 1575.49 491.872 1577.72 492.514C1579.94 493.156 1581.81 494.737 1583.07 496.514C1585.3 499.666 1585.92 503.199 1585.94 506.994C1585.95 510.791 1585.17 514.889 1583.21 518.753C1579.31 526.482 1569.74 532.292 1556.95 529.623C1545.84 527.304 1537.54 519.936 1534.55 510.132C1531.55 500.327 1533.66 488.817 1540.32 477.872C1554.73 454.216 1579.54 440.05 1599.37 424.488C1609.28 416.707 1617.94 408.661 1623.78 399.451C1629.62 390.239 1632.83 379.968 1631.98 366.477C1631.12 352.78 1622.01 339.659 1608.79 327.909C1595.57 316.158 1578.64 306.063 1564 298.195L1563.99 298.192C1561.99 297.112 1560.48 294.897 1559.97 292.943C1559.46 290.989 1559.62 289.316 1559.94 287.837C1560.56 284.882 1561.87 282.457 1563.64 280.302C1565.41 278.146 1567.72 275.663 1572.05 275.923C1574.22 276.052 1576.52 277.396 1577.84 279.096C1579.09 280.711 1579.7 282.468 1580.11 284.356C1580.13 284.327 1580.43 284.693 1581.73 285.239C1583.62 286.032 1586.95 286.739 1591.03 286.99C1599.18 287.489 1610.35 286.329 1621.25 283.487C1633.18 280.371 1645.43 283.469 1655.58 286.693C1657.71 287.37 1659.22 287.901 1661.14 288.56C1661.09 288.357 1660.99 288.16 1660.94 287.956C1659.59 281.709 1660.54 275.616 1661.79 270.399C1662.16 268.815 1662.59 267.49 1663 266.073C1654.83 268.82 1645.31 270.213 1635.93 269.128C1623.99 267.747 1611.95 261.525 1606.16 248.664C1599.36 247.047 1594.43 243.276 1590.91 239.231C1587.51 235.322 1585.02 231.426 1582.03 228ZM1589.25 252.924C1594.26 252.924 1598.33 257.074 1598.33 262.195C1598.33 267.315 1594.26 271.466 1589.25 271.466C1584.24 271.466 1580.17 267.315 1580.17 262.195C1580.17 257.074 1584.24 252.924 1589.25 252.924ZM1559.95 309.992C1588.64 336.457 1603.94 358.647 1606.52 379.327C1607.8 389.669 1605.57 399.516 1600.35 408.059C1595.13 416.6 1587.12 423.908 1576.86 430.456L1570.96 420.295C1580.24 414.375 1586.85 408.094 1590.8 401.641C1594.75 395.186 1596.23 388.63 1595.27 380.869C1593.33 365.348 1580.23 344.549 1552.45 318.922L1559.95 309.992ZM1496 323.056C1503.29 346.479 1520.79 366.774 1541.97 384.999C1543.06 381.019 1544.4 377.061 1546.39 373.369C1548.46 369.523 1551.42 365.981 1555.21 363.431C1548.82 354.098 1540.87 343.731 1534.28 332.149C1533.68 332.146 1533.08 332.126 1532.48 332.089C1527.29 331.762 1520.79 330.562 1514.1 328.885C1507.76 327.3 1501.4 325.275 1496 323.056Z" fill="white" fill-opacity="0.4"/>
<path d="M423.519 5C428.289 5.71309 432.947 6.14658 435.103 7.07975C436.367 7.62713 436.5 7.86671 436.641 8.31098C436.78 8.75371 436.909 10.2876 435.686 13.3795L433.884 17.9315L438.376 19.508C452.539 24.479 461.921 39.1881 462.117 52.1493C462.461 74.7501 442.372 94.558 431.781 113.449C428.408 119.468 429.439 126.551 432.006 133.569C434.574 140.585 438.83 148.126 443.608 156.327C453.166 172.729 464.818 191.713 469.589 211.128C472.888 224.552 467.924 233.408 460.148 239.693C452.37 245.979 441.348 248.691 435.342 247.851C425.818 246.52 419.288 240.099 415.609 232.247C411.931 224.396 411.715 215.278 414.042 210.46C415.604 207.222 418.78 204.409 422.411 202.757C426.041 201.105 430.023 200.744 432.52 201.485C440.566 203.87 443.148 209.688 443.615 215.949C443.815 218.621 443.426 221.194 442.819 223.321C441.39 220.791 439.773 218.219 437.992 215.98C436.267 213.815 434.509 211.855 431.779 210.719C430.414 210.151 428.649 209.859 426.9 210.357C425.151 210.856 423.689 212.083 422.701 213.463C420.951 215.91 420.461 218.653 420.449 221.599C420.437 224.547 421.053 227.729 422.586 230.729C425.653 236.729 433.156 241.239 443.187 239.168C451.904 237.367 458.414 231.647 460.762 224.035C463.11 216.423 461.462 207.487 456.233 198.99C444.931 180.624 425.466 169.627 409.917 157.545C402.143 151.504 395.35 145.257 390.768 138.107C386.186 130.956 383.663 122.982 384.33 112.508C385.008 101.874 392.157 91.6872 402.526 82.5653C412.894 73.4424 426.177 65.6051 437.66 59.4962L437.665 59.4941C439.236 58.6554 440.424 56.9357 440.821 55.4193C441.216 53.9023 441.091 52.6029 440.847 51.4552C440.361 49.1605 439.333 47.2778 437.941 45.6049C436.549 43.9314 434.737 42.0035 431.34 42.2051C429.643 42.3057 427.835 43.3491 426.804 44.6691C425.825 45.9224 425.341 47.2865 425.023 48.7527C425.006 48.7301 424.771 49.0143 423.748 49.4381C422.266 50.0537 419.656 50.6026 416.458 50.7976C410.062 51.1844 401.297 50.2846 392.754 48.0776C383.389 45.6587 373.78 48.0637 365.818 50.5667C364.147 51.092 362.962 51.5045 361.456 52.0165C361.496 51.8585 361.58 51.7056 361.614 51.5476C362.671 46.6971 361.931 41.9671 360.952 37.9169C360.655 36.6872 360.325 35.6581 360 34.5582C366.408 36.6908 373.876 37.7722 381.231 36.9304C390.6 35.8582 400.048 31.0271 404.586 21.0424C409.92 19.7876 413.785 16.8598 416.548 13.7197C419.218 10.6842 421.166 7.65945 423.519 5ZM417.852 24.3498C413.919 24.3498 410.731 27.5715 410.731 31.5473C410.731 35.5221 413.919 38.7449 417.852 38.7449C421.785 38.7449 424.973 35.5221 424.973 31.5473C424.973 27.5715 421.785 24.3498 417.852 24.3498ZM440.838 68.6555C418.333 89.2016 406.329 106.429 404.308 122.484C403.298 130.513 405.048 138.158 409.144 144.79C413.241 151.421 419.523 157.095 427.574 162.179L432.201 154.29C424.918 149.693 419.732 144.818 416.636 139.808C413.541 134.797 412.374 129.706 413.133 123.681C414.65 111.631 424.924 95.4839 446.717 75.5883L440.838 68.6555ZM491 78.7977C485.284 96.9825 471.551 112.739 454.94 126.887C454.085 123.798 453.035 120.725 451.474 117.858C449.847 114.873 447.525 112.123 444.553 110.143C449.565 102.897 455.799 94.8488 460.975 85.8568C461.445 85.8543 461.915 85.8389 462.384 85.8106C466.454 85.5567 471.551 84.6245 476.804 83.3225C481.771 82.0923 486.761 80.5199 491 78.7977Z" fill="white" fill-opacity="0.4"/>
<path d="M1775.58 27C1785.01 28.4086 1794.22 29.2649 1798.49 31.1081C1800.99 32.1894 1801.25 32.6626 1801.53 33.5402C1801.8 34.4147 1802.06 37.4447 1799.64 43.5522L1796.08 52.5437L1804.96 55.6577C1832.96 65.4771 1851.51 94.5321 1851.9 120.135C1852.58 164.778 1812.86 203.905 1791.92 241.22C1785.25 253.109 1787.29 267.102 1792.36 280.964C1797.44 294.823 1805.85 309.717 1815.3 325.917C1834.2 358.316 1857.24 395.816 1866.67 434.166C1873.19 460.682 1863.38 478.176 1848 490.591C1832.62 503.008 1810.83 508.365 1798.96 506.706C1780.13 504.076 1767.22 491.394 1759.94 475.883C1752.67 460.374 1752.25 442.365 1756.85 432.846C1759.94 426.452 1766.21 420.895 1773.39 417.632C1780.57 414.369 1788.44 413.655 1793.38 415.118C1809.29 419.831 1814.39 431.322 1815.32 443.69C1815.71 448.968 1814.94 454.05 1813.74 458.252C1810.92 453.253 1807.72 448.174 1804.2 443.751C1800.79 439.474 1797.31 435.603 1791.91 433.359C1789.22 432.237 1785.73 431.661 1782.27 432.644C1778.81 433.629 1775.92 436.053 1773.97 438.778C1770.51 443.612 1769.54 449.03 1769.51 454.85C1769.49 460.673 1770.71 466.958 1773.74 472.884C1779.8 484.736 1794.64 493.645 1814.47 489.554C1831.7 485.997 1844.57 474.698 1849.22 459.663C1853.86 444.626 1850.6 426.975 1840.26 410.19C1817.92 373.912 1779.43 352.189 1748.69 328.323C1733.32 316.39 1719.89 304.052 1710.83 289.927C1701.77 275.801 1696.78 260.051 1698.1 239.361C1699.44 218.356 1713.58 198.234 1734.08 180.215C1754.58 162.195 1780.84 146.714 1803.54 134.647L1803.55 134.643C1806.66 132.986 1809.01 129.589 1809.79 126.594C1810.57 123.597 1810.33 121.03 1809.84 118.763C1808.88 114.231 1806.85 110.512 1804.1 107.207C1801.35 103.902 1797.76 100.093 1791.05 100.492C1787.69 100.69 1784.12 102.751 1782.08 105.359C1780.14 107.834 1779.18 110.529 1778.56 113.425C1778.52 113.381 1778.06 113.942 1776.04 114.779C1773.11 115.995 1767.94 117.079 1761.62 117.464C1748.98 118.228 1731.65 116.451 1714.76 112.092C1696.24 107.314 1677.24 112.064 1661.5 117.008C1658.2 118.046 1655.86 118.861 1652.88 119.872C1652.96 119.56 1653.12 119.258 1653.19 118.946C1655.28 109.365 1653.82 100.021 1651.88 92.021C1651.3 89.592 1650.64 87.5592 1650 85.3865C1662.67 89.5991 1677.43 91.7352 1691.98 90.0723C1710.5 87.9544 1729.18 78.4116 1738.15 58.6887C1748.7 56.21 1756.34 50.4268 1761.8 44.224C1767.08 38.228 1770.93 32.2532 1775.58 27ZM1764.38 65.2218C1756.6 65.2218 1750.3 71.5856 1750.3 79.4392C1750.3 87.2906 1756.6 93.6565 1764.38 93.6565C1772.15 93.6565 1778.46 87.2906 1778.46 79.4392C1778.46 71.5856 1772.16 65.2218 1764.38 65.2218ZM1809.83 152.739C1765.33 193.324 1741.6 227.353 1737.6 259.068C1735.6 274.927 1739.06 290.028 1747.16 303.128C1755.26 316.227 1767.68 327.435 1783.6 337.476L1792.75 321.894C1778.35 312.814 1768.1 303.183 1761.98 293.287C1755.86 283.388 1753.55 273.334 1755.05 261.432C1758.05 237.63 1778.36 205.734 1821.45 166.434L1809.83 152.739ZM1909 172.773C1897.7 208.694 1870.55 239.817 1837.71 267.765C1836.02 261.662 1833.94 255.592 1830.85 249.93C1827.64 244.033 1823.05 238.601 1817.17 234.689C1827.08 220.377 1839.4 204.479 1849.64 186.717C1850.57 186.712 1851.5 186.682 1852.42 186.626C1860.47 186.124 1870.55 184.283 1880.93 181.711C1890.75 179.281 1900.62 176.175 1909 172.773Z" fill="white" fill-opacity="0.4"/>
</svg>
